<svg width="512" height="512" fill="none" xmlns="http://www.w3.org/2000/svg"><g clip-path="url(#a)" fill="#FE916A"><path d="M344 336H24a8 8 0 0 1 0-16h320a8.001 8.001 0 0 1 6.928 12 8.001 8.001 0 0 1-6.928 4zM441.131 305.139a7.968 7.968 0 0 1-5.657-2.343L209.2 76.517a8.004 8.004 0 0 1-2.072-7.728 8.006 8.006 0 0 1 5.657-5.658c2.76-.74 5.706.05 7.728 2.07l226.274 226.282a8 8 0 0 1-5.657 13.657l.001-.001z"/><path d="M184 496a167.99 167.99 0 0 1-118.793-49.207 167.995 167.995 0 0 1 0-237.586 167.995 167.995 0 0 1 237.586 0A167.998 167.998 0 0 1 352 328a168.193 168.193 0 0 1-168 168zm0-320A151.994 151.994 0 0 0 32 328a151.995 151.995 0 0 0 152 152 151.997 151.997 0 0 0 152-152 152.177 152.177 0 0 0-44.57-107.43A152.165 152.165 0 0 0 184 176z"/><path d="M343.228 351.275a8.004 8.004 0 0 1-5.92-2.617 8.003 8.003 0 0 1-2.045-6.14c.498-5.197.738-9.947.738-14.517a152.177 152.177 0 0 0-44.57-107.43 152.165 152.165 0 0 0-107.43-44.57c-4.526 0-9.28.24-14.52.735a8.001 8.001 0 0 1-8.72-8.72A168 168 0 0 1 446.794 65.203a167.995 167.995 0 0 1-102.812 286.033 8.374 8.374 0 0 1-.756.038l.002.001zM184 160a168.193 168.193 0 0 1 168 168c0 2.008-.043 4.04-.125 6.117a152.005 152.005 0 0 0 94.298-54.507 152 152 0 0 0-10.695-203.093A152.007 152.007 0 0 0 232.389 65.83a152.006 152.006 0 0 0-54.507 94.293c2.082-.085 4.114-.125 6.114-.125L184 160z"/></g><defs><clipPath id="a"><path fill="#fff" d="M0 0h512v512H0z"/></clipPath></defs></svg>