<?xml version="1.0" encoding="UTF-8"?>
<svg width="100pt" height="100pt" version="1.1" viewBox="0 0 100 100" xmlns="http://www.w3.org/2000/svg">
 <g fill="#554c4c">
  <path d="m23.258 26.734c2.7969 0 5.0703-2.2812 5.0703-5.0859 0-2.8047-2.2734-5.0859-5.0703-5.0859-2.7969 0-5.0703 2.2812-5.0703 5.0859 0 2.8047 2.2734 5.0859 5.0703 5.0859zm0-8.168c1.6914 0 3.0703 1.3828 3.0703 3.0859 0 1.6992-1.3789 3.0859-3.0703 3.0859-1.6914 0-3.0703-1.3828-3.0703-3.0859s1.375-3.0859 3.0703-3.0859z"/>
  <path d="m38.684 26.734c2.7969 0 5.0703-2.2812 5.0703-5.0859 0-2.8047-2.2734-5.0859-5.0703-5.0859s-5.0703 2.2812-5.0703 5.0859c0 2.8047 2.2773 5.0859 5.0703 5.0859zm0-8.168c1.6914 0 3.0703 1.3828 3.0703 3.0859 0 1.6992-1.3789 3.0859-3.0703 3.0859s-3.0703-1.3828-3.0703-3.0859 1.3789-3.0859 3.0703-3.0859z"/>
  <path d="m23.258 40.91c2.7969 0 5.0703-2.2812 5.0703-5.0859 0-2.8047-2.2734-5.0859-5.0703-5.0859-2.7969 0-5.0703 2.2812-5.0703 5.0859 0 2.8047 2.2734 5.0859 5.0703 5.0859zm0-8.168c1.6914 0 3.0703 1.3828 3.0703 3.0859 0 1.6992-1.3789 3.0859-3.0703 3.0859-1.6914 0-3.0703-1.3828-3.0703-3.0859s1.375-3.0859 3.0703-3.0859z"/>
  <path d="m38.684 40.91c2.7969 0 5.0703-2.2812 5.0703-5.0859 0-2.8047-2.2734-5.0859-5.0703-5.0859s-5.0703 2.2812-5.0703 5.0859c0 2.8047 2.2773 5.0859 5.0703 5.0859zm0-8.168c1.6914 0 3.0703 1.3828 3.0703 3.0859 0 1.6992-1.3789 3.0859-3.0703 3.0859s-3.0703-1.3828-3.0703-3.0859 1.3789-3.0859 3.0703-3.0859z"/>
  <path d="m23.258 55.086c2.7969 0 5.0703-2.2812 5.0703-5.0859s-2.2734-5.0859-5.0703-5.0859c-2.7969 0-5.0703 2.2812-5.0703 5.0859s2.2734 5.0859 5.0703 5.0859zm0-8.1719c1.6914 0 3.0703 1.3828 3.0703 3.0859 0 1.6992-1.3789 3.0859-3.0703 3.0859-1.6914 0-3.0703-1.3867-3.0703-3.0859s1.375-3.0859 3.0703-3.0859z"/>
  <path d="m38.684 55.086c2.7969 0 5.0703-2.2812 5.0703-5.0859s-2.2734-5.0859-5.0703-5.0859c-2.793 0-5.0703 2.2812-5.0703 5.0859s2.2773 5.0859 5.0703 5.0859zm0-8.1719c1.6914 0 3.0703 1.3828 3.0703 3.0859 0 1.6992-1.3789 3.0859-3.0703 3.0859s-3.0703-1.3867-3.0703-3.0859 1.3789-3.0859 3.0703-3.0859z"/>
  <path d="m23.258 69.258c2.7969 0 5.0703-2.2812 5.0703-5.0859s-2.2734-5.0859-5.0703-5.0859c-2.7969 0-5.0703 2.2812-5.0703 5.0859s2.2734 5.0859 5.0703 5.0859zm0-8.168c1.6914 0 3.0703 1.3828 3.0703 3.0859 0 1.6992-1.3789 3.0859-3.0703 3.0859-1.6914 0-3.0703-1.3828-3.0703-3.0859s1.375-3.0859 3.0703-3.0859z"/>
  <path d="m38.684 69.258c2.7969 0 5.0703-2.2812 5.0703-5.0859s-2.2734-5.0859-5.0703-5.0859-5.0703 2.2812-5.0703 5.0859 2.2773 5.0859 5.0703 5.0859zm0-8.168c1.6914 0 3.0703 1.3828 3.0703 3.0859 0 1.6992-1.3789 3.0859-3.0703 3.0859s-3.0703-1.3828-3.0703-3.0859 1.3789-3.0859 3.0703-3.0859z"/>
  <path d="m23.258 83.434c2.7969 0 5.0703-2.2812 5.0703-5.0859 0-2.8047-2.2734-5.0859-5.0703-5.0859-2.7969 0-5.0703 2.2812-5.0703 5.0859 0 2.8047 2.2734 5.0859 5.0703 5.0859zm0-8.168c1.6914 0 3.0703 1.3828 3.0703 3.0859 0 1.6992-1.3789 3.0859-3.0703 3.0859-1.6914 0-3.0703-1.3828-3.0703-3.0859 0-1.7031 1.375-3.0859 3.0703-3.0859z"/>
  <path d="m38.684 83.434c2.7969 0 5.0703-2.2812 5.0703-5.0859 0-2.8047-2.2734-5.0859-5.0703-5.0859s-5.0703 2.2812-5.0703 5.0859c0 2.8047 2.2773 5.0859 5.0703 5.0859zm0-8.168c1.6914 0 3.0703 1.3828 3.0703 3.0859 0 1.6992-1.3789 3.0859-3.0703 3.0859s-3.0703-1.3828-3.0703-3.0859c0-1.7031 1.3789-3.0859 3.0703-3.0859z"/>
  <path d="m61.316 26.734c2.7969 0 5.0703-2.2812 5.0703-5.0859 0-2.8047-2.2734-5.0859-5.0703-5.0859s-5.0703 2.2812-5.0703 5.0859c-0.003906 2.8047 2.2734 5.0859 5.0703 5.0859zm0-8.168c1.6914 0 3.0703 1.3828 3.0703 3.0859 0 1.6992-1.3789 3.0859-3.0703 3.0859s-3.0703-1.3828-3.0703-3.0859c-0.003906-1.7031 1.375-3.0859 3.0703-3.0859z"/>
  <path d="m76.742 26.734c2.7969 0 5.0703-2.2812 5.0703-5.0859 0-2.8047-2.2734-5.0859-5.0703-5.0859-2.7969 0-5.0703 2.2812-5.0703 5.0859 0 2.8047 2.2734 5.0859 5.0703 5.0859zm0-8.168c1.6914 0 3.0703 1.3828 3.0703 3.0859 0 1.6992-1.3789 3.0859-3.0703 3.0859-1.6914 0-3.0703-1.3828-3.0703-3.0859s1.3789-3.0859 3.0703-3.0859z"/>
  <path d="m61.316 40.91c2.7969 0 5.0703-2.2812 5.0703-5.0859 0-2.8047-2.2734-5.0859-5.0703-5.0859s-5.0703 2.2812-5.0703 5.0859c-0.003906 2.8047 2.2734 5.0859 5.0703 5.0859zm0-8.168c1.6914 0 3.0703 1.3828 3.0703 3.0859 0 1.6992-1.3789 3.0859-3.0703 3.0859s-3.0703-1.3828-3.0703-3.0859c-0.003906-1.7031 1.375-3.0859 3.0703-3.0859z"/>
  <path d="m76.742 40.91c2.7969 0 5.0703-2.2812 5.0703-5.0859 0-2.8047-2.2734-5.0859-5.0703-5.0859-2.7969 0-5.0703 2.2812-5.0703 5.0859 0 2.8047 2.2734 5.0859 5.0703 5.0859zm0-8.168c1.6914 0 3.0703 1.3828 3.0703 3.0859 0 1.6992-1.3789 3.0859-3.0703 3.0859-1.6914 0-3.0703-1.3828-3.0703-3.0859s1.3789-3.0859 3.0703-3.0859z"/>
  <path d="m61.316 55.086c2.7969 0 5.0703-2.2812 5.0703-5.0859s-2.2734-5.0859-5.0703-5.0859-5.0742 2.2812-5.0742 5.0859 2.2773 5.0859 5.0742 5.0859zm0-8.1719c1.6914 0 3.0703 1.3828 3.0703 3.0859 0 1.6992-1.3789 3.0859-3.0703 3.0859-1.6953 0-3.0742-1.3867-3.0742-3.0859s1.3789-3.0859 3.0742-3.0859z"/>
  <path d="m76.742 55.086c2.7969 0 5.0703-2.2812 5.0703-5.0859s-2.2734-5.0859-5.0703-5.0859c-2.7969 0-5.0703 2.2812-5.0703 5.0859s2.2734 5.0859 5.0703 5.0859zm0-8.1719c1.6914 0 3.0703 1.3828 3.0703 3.0859 0 1.6992-1.3789 3.0859-3.0703 3.0859-1.6914 0-3.0703-1.3867-3.0703-3.0859s1.3789-3.0859 3.0703-3.0859z"/>
  <path d="m61.316 69.258c2.7969 0 5.0703-2.2812 5.0703-5.0859s-2.2734-5.0859-5.0703-5.0859-5.0703 2.2812-5.0703 5.0859c-0.003906 2.8047 2.2734 5.0859 5.0703 5.0859zm0-8.168c1.6914 0 3.0703 1.3828 3.0703 3.0859 0 1.6992-1.3789 3.0859-3.0703 3.0859s-3.0703-1.3828-3.0703-3.0859c-0.003906-1.7031 1.375-3.0859 3.0703-3.0859z"/>
  <path d="m76.742 69.258c2.7969 0 5.0703-2.2812 5.0703-5.0859s-2.2734-5.0859-5.0703-5.0859c-2.7969 0-5.0703 2.2812-5.0703 5.0859s2.2734 5.0859 5.0703 5.0859zm0-8.168c1.6914 0 3.0703 1.3828 3.0703 3.0859 0 1.6992-1.3789 3.0859-3.0703 3.0859-1.6914 0-3.0703-1.3828-3.0703-3.0859s1.3789-3.0859 3.0703-3.0859z"/>
  <path d="m61.316 83.434c2.7969 0 5.0703-2.2812 5.0703-5.0859 0-2.8047-2.2734-5.0859-5.0703-5.0859s-5.0703 2.2812-5.0703 5.0859c-0.003906 2.8047 2.2734 5.0859 5.0703 5.0859zm0-8.168c1.6914 0 3.0703 1.3828 3.0703 3.0859 0 1.6992-1.3789 3.0859-3.0703 3.0859s-3.0703-1.3828-3.0703-3.0859c-0.003906-1.7031 1.375-3.0859 3.0703-3.0859z"/>
  <path d="m76.742 83.434c2.7969 0 5.0703-2.2812 5.0703-5.0859 0-2.8047-2.2734-5.0859-5.0703-5.0859-2.7969 0-5.0703 2.2812-5.0703 5.0859 0 2.8047 2.2734 5.0859 5.0703 5.0859zm0-8.168c1.6914 0 3.0703 1.3828 3.0703 3.0859 0 1.6992-1.3789 3.0859-3.0703 3.0859-1.6914 0-3.0703-1.3828-3.0703-3.0859 0-1.7031 1.3789-3.0859 3.0703-3.0859z"/>
  <path d="m17.504 90h64.996c4.1367 0 7.5-3.3672 7.5-7.5039v-64.992c0-4.1367-3.3633-7.5039-7.5039-7.5039h-64.992c-4.1406 0-7.5039 3.3672-7.5039 7.5039v64.996c0 4.1328 3.3633 7.5 7.5039 7.5zm-5.5039-72.496c0-3.0352 2.4688-5.5039 5.5039-5.5039h64.996c3.0312 0 5.5 2.4688 5.5 5.5039v64.996c0 3.0312-2.4688 5.5-5.5039 5.5h-64.992c-3.0352 0-5.5039-2.4688-5.5039-5.5039z"/>
  <path d="m50 22.266c0.55469 0 1-0.44922 1-1v-4.1406c0-0.55078-0.44531-1-1-1s-1 0.44922-1 1v4.1406c0 0.55078 0.44531 1 1 1z"/>
  <path d="m50 32.535c0.55469 0 1-0.44922 1-1v-4.1406c0-0.55078-0.44531-1-1-1s-1 0.44922-1 1v4.1406c0 0.55078 0.44531 1 1 1z"/>
  <path d="m50 42.801c0.55469 0 1-0.44922 1-1v-4.1406c0-0.55078-0.44531-1-1-1s-1 0.44922-1 1v4.1406c0 0.55469 0.44531 1 1 1z"/>
  <path d="m50 53.07c0.55469 0 1-0.44922 1-1v-4.1406c0-0.55078-0.44531-1-1-1s-1 0.44922-1 1v4.1406c0 0.55078 0.44531 1 1 1z"/>
  <path d="m50 63.34c0.55469 0 1-0.44922 1-1v-4.1406c0-0.55078-0.44531-1-1-1s-1 0.44922-1 1v4.1406c0 0.55078 0.44531 1 1 1z"/>
  <path d="m50 73.605c0.55469 0 1-0.44922 1-1v-4.1406c0-0.55078-0.44531-1-1-1s-1 0.44922-1 1v4.1406c0 0.55469 0.44531 1 1 1z"/>
  <path d="m50 83.875c0.55469 0 1-0.44922 1-1v-4.1406c0-0.55078-0.44531-1-1-1s-1 0.44922-1 1v4.1406c0 0.55469 0.44531 1 1 1z"/>
 </g>
</svg>
