<?xml version="1.0" encoding="UTF-8"?>
<svg width="100pt" height="100pt" version="1.1" viewBox="0 0 100 100" xmlns="http://www.w3.org/2000/svg">
 <path d="m89.148 41.113c0-6.0391-4.2109-11.633-11.855-15.754-7.3203-3.9453-17.016-6.1211-27.305-6.1211-10.285 0-19.984 2.1719-27.305 6.1211-7.6445 4.1211-11.855 9.7148-11.855 15.754 0 0.32812 0.015625 0.65234 0.039063 0.97656-0.007813 0.070312-0.015626 0.13672-0.015626 0.20703v16.59c0 6.0391 4.2109 11.633 11.855 15.754 7.3203 3.9453 17.016 6.1211 27.305 6.1211 10.285 0 19.984-2.1719 27.305-6.1211 7.6445-4.1211 11.855-9.7148 11.855-15.754v-16.98c0-0.11719-0.011719-0.23047-0.035156-0.33984 0.007812-0.14844 0.011719-0.30078 0.011719-0.45312zm-13.434-12.836c6.5195 3.5156 10.109 8.0742 10.109 12.832 0 4.7617-3.5898 9.3164-10.109 12.832-3.3516 1.8047-7.2539 3.2148-11.508 4.1836l-26.41-34.453c3.8594-0.73438 7.9688-1.1172 12.191-1.1172 9.7461 0.003906 18.883 2.0352 25.727 5.7227zm-51.457 0c2.9414-1.5859 6.3086-2.8633 9.9648-3.8086l26.348 34.363c-3.3828 0.54688-6.9414 0.83203-10.582 0.83203-9.7461 0-18.883-2.0312-25.73-5.7227-6.5195-3.5156-10.109-8.0742-10.109-12.832s3.5898-9.3164 10.109-12.832zm61.594 30.609c0 4.7617-3.5898 9.3164-10.109 12.832-6.8438 3.6914-15.98 5.7227-25.73 5.7227-9.7461 0-18.883-2.0312-25.73-5.7227-6.5195-3.5156-10.109-8.0742-10.109-12.832v-8.8164c2 2.5234 4.8633 4.8281 8.5117 6.793 7.3203 3.9453 17.016 6.1211 27.305 6.1211 10.285 0 19.984-2.1719 27.305-6.1211 3.6797-1.9844 6.5586-4.3086 8.5586-6.8594z" fill="#554c4c"/>
</svg>
