<svg width="847" height="640" viewBox="0 0 847 640" fill="none" xmlns="http://www.w3.org/2000/svg">
<line x1="774.921" y1="341.078" x2="774.078" y2="502.079" stroke="#554C4C" stroke-width="30" stroke-linecap="round"/>
<line x1="428" y1="471" x2="428" y2="610" stroke="#554C4C" stroke-width="30" stroke-linecap="round"/>
<line x1="582.786" y1="84.2121" x2="253.212" y2="407.214" stroke="#554C4C" stroke-width="30" stroke-linecap="round"/>
<line x1="72" y1="345" x2="72" y2="484" stroke="#554C4C" stroke-width="30" stroke-linecap="round"/>
<path d="M771 505L434 625" stroke="#554C4C" stroke-width="30" stroke-linecap="round"/>
<path d="M72 486L431 625" stroke="#554C4C" stroke-width="30" stroke-linecap="round"/>
<path d="M424.783 17.1234L772.015 130.851C773.658 131.389 774.77 132.923 774.77 134.652V347.014C774.77 348.743 773.658 350.277 772.015 350.815L424.783 464.543C423.974 464.808 423.102 464.808 422.293 464.543L75.0613 350.815C73.4178 350.277 72.3064 348.743 72.3064 347.014V134.652C72.3064 132.923 73.4178 131.389 75.0613 130.851L422.293 17.1234C423.102 16.8584 423.974 16.8584 424.783 17.1234Z" stroke="#554C4C" stroke-width="30"/>
</svg>
