<?xml version="1.0" encoding="UTF-8"?>
<svg width="100pt" height="100pt" version="1.1" viewBox="0 0 100 100" xmlns="http://www.w3.org/2000/svg">
 <path d="m44.562 22.215-1.1211-4.6016c-0.11719-0.40625-0.007812-0.86328 0.32031-1.1758 0.38281-0.36328 0.66016-0.81641 0.80859-1.3203 0.14453-0.48438 0.16406-1.0156 0.035157-1.5391-0.19141-0.79297-0.69141-1.4336-1.3438-1.8281-0.64844-0.39453-1.4453-0.53906-2.2422-0.34766-0.79297 0.19141-1.4336 0.69141-1.8281 1.3438-0.39453 0.64844-0.53906 1.4453-0.34766 2.2422 0.12891 0.52344 0.39062 0.98047 0.73828 1.3477 0.35156 0.36719 0.79297 0.64062 1.2734 0.78516 0.41406 0.097656 0.76172 0.42188 0.86719 0.86719l1.1328 4.6484c0.5625-0.15625 1.1328-0.29297 1.707-0.41406zm-23.309 32.828-4.6641 0.73438c-0.42188 0.089844-0.875-0.054688-1.1602-0.41406-0.32813-0.41016-0.76172-0.72656-1.2461-0.91406-0.44531-0.17188-0.9375-0.23828-1.4414-0.17578-0.058594 0.011718-0.11719 0.023437-0.17578 0.027343-0.76953 0.14453-1.418 0.57812-1.8516 1.168-0.42969 0.58984-0.64062 1.3398-0.54297 2.1172 0.011719 0.058593 0.023437 0.11719 0.027344 0.17578 0.14453 0.76953 0.57812 1.418 1.168 1.8516 0.58984 0.42969 1.3398 0.64062 2.1172 0.54297 0.058594-0.011719 0.11719-0.023438 0.17578-0.027344 0.49609-0.09375 0.94531-0.30859 1.3164-0.60938 0.40625-0.32812 0.71875-0.76172 0.90625-1.2539h0.003907c0.14453-0.38281 0.48438-0.67969 0.91797-0.74609l4.7227-0.74219c-0.10547-0.57422-0.19922-1.1523-0.27344-1.7383zm33.238 25.73 0.73437 4.6641c0.089844 0.42188-0.054687 0.875-0.41406 1.1602-0.41016 0.32812-0.72656 0.76172-0.91797 1.2461-0.18359 0.47266-0.24609 0.99609-0.16406 1.5352 0.12891 0.80859 0.57031 1.4883 1.1836 1.9336 0.61328 0.44531 1.3984 0.66016 2.2109 0.53125 0.80859-0.12891 1.4883-0.57031 1.9336-1.1836 0.44531-0.61328 0.66016-1.3984 0.53125-2.2109-0.085938-0.53125-0.30469-1.0117-0.625-1.4023-0.32812-0.40625-0.76172-0.71875-1.2539-0.90625v-0.003906c-0.38281-0.14453-0.67969-0.48438-0.74609-0.91797l-0.74219-4.7227c-0.57422 0.10547-1.1523 0.19922-1.7383 0.27344zm24.352-39.16 4.418-1.668c0.39453-0.17187 0.86719-0.12109 1.2227 0.17188 0.40234 0.33594 0.89062 0.55469 1.4062 0.64062 0.49609 0.082032 1.0234 0.039063 1.5312-0.15234 0.76562-0.28906 1.3398-0.85938 1.6523-1.5508 0.3125-0.69141 0.36328-1.5039 0.074219-2.2695-0.28906-0.76562-0.85938-1.3398-1.5508-1.6523s-1.5039-0.36328-2.2695-0.074218c-0.50781 0.19141-0.92969 0.50781-1.2461 0.89453-0.32422 0.39453-0.53906 0.86719-0.625 1.3672-0.050781 0.42188-0.32812 0.80078-0.75391 0.95703l-4.4766 1.6914c0.22266 0.53906 0.42969 1.0859 0.62109 1.6406zm-1.6055-3.7812 4.0469-1.5273c0.19922-0.66797 0.53125-1.2891 0.97266-1.832 0.57422-0.70312 1.3359-1.2695 2.2422-1.6133 1.3711-0.51953 2.8242-0.42969 4.0625 0.12891 1.2383 0.55859 2.2656 1.5938 2.7852 2.9688 0.51953 1.3711 0.42969 2.8242-0.12891 4.0625s-1.5938 2.2656-2.9688 2.7852c-0.90625 0.34375-1.8516 0.42187-2.7461 0.27344-0.69141-0.11328-1.3516-0.36328-1.9414-0.73438l-4.0391 1.5273c0.60937 2.3711 0.9375 4.8594 0.9375 7.418 0 2.1367-0.22656 4.2266-0.66016 6.2461-0.37109 1.7305-0.89062 3.4062-1.5469 5.0117 1.3906 0.85156 2.6055 1.4922 3.6797 2.0586 0.52344 0.27344 1.0117 0.53125 1.4961 0.80469 0.79297-0.29688 1.6406-0.4375 2.4961-0.41016 1.0312 0.03125 2.0703 0.3125 3.0273 0.86719l0.003906 0.003906v-0.003906c1.5547 0.89453 2.5938 2.3359 3.0234 3.9375 0.42969 1.6016 0.24609 3.3711-0.64844 4.9258-0.011719 0.023437-0.027343 0.046875-0.042969 0.066406-0.89844 1.5156-2.3203 2.5312-3.8984 2.957-1.6016 0.42969-3.3672 0.24609-4.918-0.64844l-0.003906-0.003907v0.003907c-0.95703-0.55078-1.7188-1.3125-2.2656-2.1875-0.44922-0.72656-0.75391-1.5312-0.89062-2.3672-0.46484-0.27734-0.9375-0.57422-1.4414-0.89453-1.0273-0.64844-2.1875-1.3828-3.6289-2.1602-2.6641 3.4375-6.0703 6.2734-9.9766 8.2734-1.8125 0.92969-3.7344 1.6758-5.7383 2.2188l0.67188 4.2656c0.61328 0.33203 1.1562 0.78125 1.5977 1.3242 0.57031 0.70312 0.96875 1.5625 1.1211 2.5234 0.22656 1.4453-0.15234 2.8516-0.95312 3.9492-0.80078 1.0977-2.0195 1.8945-3.4727 2.1211-1.4453 0.22656-2.8516-0.15234-3.9492-0.95312-1.0977-0.80078-1.8945-2.0195-2.1211-3.4727-0.15234-0.95703-0.035156-1.8945 0.29297-2.7383 0.25391-0.65234 0.63281-1.25 1.1133-1.7539l-0.67188-4.2695c-0.46875 0.023437-0.9375 0.03125-1.4102 0.03125-2.1367 0-4.2266-0.22656-6.2461-0.66016-1.7305-0.37109-3.4062-0.89062-5.0117-1.5469-0.85156 1.3906-1.4922 2.6055-2.0586 3.6758-0.27344 0.52344-0.53125 1.0117-0.80469 1.4961 0.29688 0.79297 0.4375 1.6406 0.41016 2.4961-0.035156 1.0352-0.3125 2.0742-0.86719 3.0312-0.89453 1.5508-2.3359 2.5938-3.9375 3.0234-1.6016 0.42969-3.3711 0.24609-4.9258-0.64844-1.5508-0.89453-2.5938-2.3359-3.0234-3.9375-0.42969-1.6016-0.24609-3.3711 0.64844-4.9258 0.55078-0.95703 1.3125-1.7188 2.1875-2.2656 0.72656-0.44922 1.5312-0.75391 2.3672-0.89062 0.27734-0.46094 0.57422-0.9375 0.89453-1.4414 0.64844-1.0273 1.3828-2.1875 2.1602-3.6289-3.4375-2.6641-6.2734-6.0703-8.2734-9.9766-0.92969-1.8125-1.6758-3.7344-2.2188-5.7383l-4.2656 0.67188c-0.33203 0.61328-0.78125 1.1562-1.3242 1.5977-0.70312 0.57031-1.5625 0.96875-2.5234 1.1211h-0.003906c-1.4453 0.22656-2.8477-0.15234-3.9453-0.95312s-1.8945-2.0195-2.1211-3.4727v-0.003907c-0.22656-1.4453 0.15234-2.8477 0.95312-3.9453 0.80078-1.0977 2.0195-1.8945 3.4727-2.1211 0.95703-0.15234 1.8945-0.035156 2.7383 0.29297 0.65234 0.25391 1.25 0.63281 1.7539 1.1133l4.2695-0.67188c-0.023437-0.46875-0.03125-0.9375-0.03125-1.4102 0-2.1367 0.22656-4.2266 0.66016-6.2461 0.37109-1.7305 0.89062-3.4062 1.5469-5.0117-1.3906-0.85156-2.6055-1.4922-3.6797-2.0586-0.52344-0.27344-1.0117-0.53125-1.4961-0.80469-0.79297 0.29688-1.6406 0.4375-2.4961 0.41016-1.0352-0.035157-2.0742-0.3125-3.0312-0.86719-1.5508-0.89453-2.5938-2.3359-3.0234-3.9375-0.42969-1.5977-0.24609-3.3555 0.64453-4.9062l0.011719-0.015625h-0.003906c0.89453-1.5547 2.3359-2.5938 3.9375-3.0234 1.6016-0.42969 3.3711-0.24609 4.9258 0.64844 0.95703 0.55078 1.7188 1.3125 2.2656 2.1875 0.44922 0.72656 0.75391 1.5312 0.89062 2.3672 0.46094 0.27734 0.9375 0.57422 1.4414 0.89453 1.0273 0.64844 2.1875 1.3828 3.6289 2.1602 2.6641-3.4375 6.0703-6.2734 9.9766-8.2734 1.0938-0.55859 2.2266-1.0547 3.3945-1.4766l-1.0234-4.1992c-0.64062-0.28125-1.2188-0.68359-1.6992-1.1836-0.62891-0.65234-1.0977-1.4766-1.3281-2.4219-0.34766-1.4258-0.085938-2.8555 0.62109-4.0195 0.70703-1.1602 1.8555-2.0508 3.2812-2.3984 1.4258-0.34766 2.8555-0.085938 4.0195 0.62109 1.1602 0.70703 2.0508 1.8555 2.3984 3.2812 0.23047 0.94141 0.19141 1.8867-0.0625 2.7539-0.19922 0.67188-0.52734 1.2969-0.96484 1.8398l1.0234 4.1992c1.2656-0.16406 2.5508-0.25 3.8594-0.25 2.1367 0 4.2266 0.22656 6.2461 0.66016 1.7305 0.37109 3.4062 0.89063 5.0117 1.5469 0.85156-1.3906 1.4922-2.6055 2.0586-3.6797 0.27344-0.52344 0.53125-1.0117 0.80469-1.4961-0.29688-0.79297-0.4375-1.6406-0.41016-2.4961 0.035156-1.0312 0.3125-2.0703 0.86719-3.0273l0.003906-0.003907h-0.003906c0.89453-1.5547 2.3359-2.5938 3.9375-3.0234 1.6016-0.42969 3.3711-0.24609 4.9258 0.64844 1.5508 0.89453 2.5938 2.3359 3.0234 3.9375 0.42969 1.6016 0.24609 3.3672-0.64844 4.918l-0.003907 0.003907h0.003907c-0.55078 0.95703-1.3125 1.7188-2.1875 2.2656-0.72656 0.44922-1.5312 0.75391-2.3672 0.89063-0.27734 0.46094-0.57422 0.9375-0.89453 1.4414-0.64844 1.0273-1.3828 2.1875-2.1602 3.6289 3.4375 2.6641 6.2734 6.0703 8.2734 9.9766l0.035156 0.066407zm-1.6211 2.0312c0.53125 1.1602 0.98828 2.3633 1.3555 3.6055l0.007813 0.023438c0.73047 2.4688 1.1211 5.0859 1.1211 7.7969 0 1.9805-0.20703 3.9062-0.60547 5.7578-0.30859 1.4414-0.73047 2.8398-1.2578 4.1875-1.0547-0.73047-2.1914-1.5859-3.4297-2.6094-0.49609-0.41406-1.2383-0.34766-1.6523 0.15234-0.41406 0.49609-0.34766 1.2383 0.15234 1.6523 1.7812 1.4805 3.3633 2.6172 4.7773 3.5352 0.027343 0.019531 0.054687 0.039062 0.085937 0.054687 1.8047 1.1641 3.3359 1.9688 4.6562 2.6641 0.72266 0.37891 1.3828 0.72656 1.9258 1.0469 0.35156 0.20703 0.76953 0.20703 1.1133 0.039062 0.61328-0.30078 1.2891-0.44922 1.9727-0.42578 0.65625 0.019531 1.3203 0.19922 1.9297 0.55078v0.003907c0.98828 0.57031 1.6523 1.4883 1.9258 2.5117 0.27344 1.0234 0.16016 2.1523-0.41016 3.1406-0.011718 0.019531-0.023437 0.039063-0.03125 0.058594-0.57031 0.95703-1.4766 1.6016-2.4805 1.8711-1.0234 0.27344-2.1523 0.16016-3.1406-0.41016v-0.003906c-0.60937-0.35156-1.0977-0.83594-1.4453-1.3984-0.35938-0.58203-0.57031-1.2422-0.61719-1.918-0.027343-0.42969-0.28125-0.78906-0.63672-0.97266-0.56641-0.32422-1.168-0.70312-1.8242-1.1172-2.2773-1.4375-5.1992-3.2812-10.176-5.1172-0.60938-0.22266-1.2852 0.089843-1.5078 0.69922-0.22266 0.60937 0.089844 1.2852 0.69922 1.5078 1.5039 0.55469 2.8125 1.1133 3.9688 1.6602-2.4102 3.0078-5.4453 5.4922-8.9062 7.2656-3.7305 1.9102-7.9609 2.9844-12.453 2.9844-1.9805 0-3.9062-0.20703-5.7578-0.60547-1.4414-0.30859-2.8398-0.73047-4.1875-1.2578 0.73047-1.0547 1.5859-2.1914 2.6094-3.4297 0.41406-0.49609 0.34766-1.2383-0.15234-1.6523-0.49609-0.41406-1.2383-0.34766-1.6523 0.15234-1.4805 1.7812-2.6172 3.3633-3.5352 4.7773-0.019532 0.027344-0.035156 0.054688-0.054688 0.085938-1.1641 1.8047-1.9688 3.3359-2.6641 4.6562-0.38281 0.72266-0.72656 1.3828-1.0469 1.9258-0.20703 0.35156-0.20703 0.76953-0.039063 1.1133 0.30078 0.61328 0.44922 1.293 0.42969 1.9766-0.019532 0.65625-0.19922 1.3164-0.55469 1.9297-0.57031 0.98828-1.4883 1.6523-2.5117 1.9297-1.0234 0.27344-2.1523 0.16016-3.1406-0.41016-0.98828-0.57031-1.6523-1.4883-1.9297-2.5117-0.27344-1.0234-0.16016-2.1523 0.41016-3.1406 0.35156-0.60938 0.83594-1.0977 1.3984-1.4453 0.58203-0.35938 1.2422-0.57031 1.918-0.61719 0.42969-0.027344 0.78906-0.28125 0.97266-0.63672 0.32422-0.56641 0.70312-1.168 1.1172-1.8242 1.4375-2.2773 3.2812-5.1992 5.1172-10.176 0.22266-0.60938-0.089844-1.2852-0.69922-1.5078-0.60938-0.22266-1.2852 0.089843-1.5078 0.69922-0.55469 1.5039-1.1133 2.8125-1.6602 3.9688-3.0078-2.4102-5.4922-5.4453-7.2656-8.9062-1.9102-3.7305-2.9844-7.9609-2.9844-12.453 0-1.9805 0.20703-3.9062 0.60547-5.7578 0.30859-1.4414 0.73047-2.8398 1.2578-4.1875 1.0547 0.73047 2.1914 1.5859 3.4297 2.6094 0.49609 0.41406 1.2383 0.34766 1.6523-0.15234 0.41406-0.49609 0.34766-1.2383-0.15234-1.6523-1.7812-1.4805-3.3633-2.6172-4.7773-3.5352-0.027344-0.019531-0.054687-0.035156-0.085937-0.054688-1.8047-1.1641-3.3359-1.9688-4.6562-2.6641-0.72266-0.37891-1.3828-0.72656-1.9258-1.0469-0.35156-0.20703-0.76953-0.20703-1.1133-0.039063-0.61328 0.30078-1.2891 0.44922-1.9727 0.42578-0.65625-0.019532-1.3164-0.19922-1.9297-0.55469-0.98828-0.57031-1.6523-1.4883-1.9297-2.5117-0.27344-1.0234-0.16016-2.1523 0.41016-3.1406h0.003907c0.57031-0.98828 1.4883-1.6523 2.5117-1.9258 1.0234-0.27344 2.1523-0.16016 3.1406 0.41016 0.60938 0.35156 1.0977 0.83594 1.4453 1.3984 0.35938 0.58203 0.57031 1.2422 0.61719 1.918 0.027344 0.42969 0.28125 0.78906 0.63672 0.97266 0.56641 0.32422 1.168 0.70312 1.8242 1.1172 2.2773 1.4375 5.1992 3.2812 10.176 5.1172 0.60938 0.22266 1.2852-0.089844 1.5078-0.69922 0.22266-0.60938-0.089843-1.2852-0.69922-1.5078-1.5039-0.55469-2.8125-1.1133-3.9688-1.6602 2.4102-3.0078 5.4453-5.4922 8.9062-7.2656 1.293-0.66016 2.6484-1.2266 4.0547-1.6758 0.015625-0.003906 0.03125-0.011719 0.046875-0.015625 2.6328-0.83984 5.4375-1.293 8.3516-1.293 1.9805 0 3.9062 0.20703 5.7578 0.60547 1.4414 0.30859 2.8398 0.73047 4.1875 1.2578-0.73047 1.0547-1.5859 2.1914-2.6094 3.4297-0.41406 0.49609-0.34766 1.2383 0.15234 1.6523 0.49609 0.41406 1.2383 0.34766 1.6523-0.15234 1.4805-1.7812 2.6172-3.3633 3.5352-4.7773 0.019531-0.027343 0.035156-0.054687 0.054688-0.082031 1.1641-1.8047 1.9688-3.3359 2.6641-4.6562 0.37891-0.72266 0.72656-1.3828 1.0469-1.9258 0.20703-0.35156 0.20703-0.76953 0.039063-1.1133-0.30078-0.61328-0.44922-1.293-0.42969-1.9766 0.019531-0.65625 0.19922-1.3203 0.55078-1.9297h0.003907c0.57031-0.98828 1.4883-1.6523 2.5117-1.9258 1.0234-0.27344 2.1523-0.16016 3.1406 0.41016 0.98828 0.57031 1.6523 1.4883 1.9297 2.5117 0.27344 1.0234 0.16016 2.1523-0.41016 3.1406h-0.003906c-0.35156 0.60937-0.83594 1.0977-1.3984 1.4453-0.58203 0.35938-1.2422 0.57031-1.918 0.61719-0.42969 0.027343-0.78906 0.28125-0.97266 0.63672-0.32422 0.56641-0.70312 1.168-1.1172 1.8242-1.4375 2.2773-3.2812 5.1992-5.1172 10.176-0.22266 0.60938 0.089843 1.2852 0.69922 1.5078 0.60937 0.22266 1.2852-0.089844 1.5078-0.69922 0.55469-1.5039 1.1133-2.8125 1.6602-3.9688 3.0078 2.4102 5.4922 5.4453 7.2656 8.9062 0.15234 0.30078 0.30078 0.60547 0.44531 0.91016 0.015625 0.039063 0.035156 0.078125 0.054687 0.11719zm-24.789-4.4727c-0.5625-0.5625-1.3438-0.91406-2.2031-0.91406s-1.6406 0.34766-2.2031 0.91406c-0.5625 0.5625-0.91406 1.3438-0.91406 2.2031s0.34766 1.6406 0.91406 2.2031c0.5625 0.5625 1.3438 0.91406 2.2031 0.91406s1.6406-0.34766 2.2031-0.91406c0.5625-0.5625 0.91406-1.3438 0.91406-2.2031s-0.34766-1.6406-0.91406-2.2031zm-2.2031-3.2695c-1.5117 0-2.8789 0.61328-3.8711 1.6016-0.98828 0.98828-1.6016 2.3594-1.6016 3.8711s0.61328 2.8789 1.6016 3.8711c0.98828 0.98828 2.3594 1.6016 3.8711 1.6016s2.8789-0.61328 3.8711-1.6016c0.99219-0.98828 1.6016-2.3594 1.6016-3.8711s-0.61328-2.8789-1.6016-3.8711c-0.98828-0.98828-2.3594-1.6016-3.8711-1.6016zm12.988 25.961c-0.66406-0.13281-1.4648-0.078125-2.3945 0.20703-0.57422 0.17578-0.83594 0.25391-1.0781 0.32422-2.9609 0.87891-4.2539 1.2617-4.0469 4.4375 0.097656 1.4766 0.48828 2.7852 1.0742 3.7578 0.011719 0.019531 0.023437 0.035156 0.035156 0.054687 0.32812 0.53906 0.70703 0.95312 1.1055 1.2188 0.33594 0.22266 0.69531 0.33203 1.0625 0.30859 0.27734-0.019531 0.57422-0.11719 0.89062-0.3125 0.73828-0.45312 1.418-0.77734 2.0469-1.0742 1.6094-0.76562 2.8203-1.3438 3.3789-4.1094 0.22656-1.1172 0.19922-2.1016-0.042969-2.8906-0.16016-0.52344-0.41797-0.95703-0.76172-1.2812-0.33594-0.31641-0.76172-0.53516-1.2695-0.63672zm-3.0742-2.0352c-0.17578 0.054687-0.62891 0.1875-1.0625 0.31641-4.2188 1.25-6.0586 1.793-5.7266 6.8359 0.12109 1.8672 0.64062 3.5469 1.4102 4.8281 0.011719 0.023437 0.027344 0.046875 0.039063 0.070312 0.50391 0.81641 1.1211 1.4844 1.8203 1.9453 0.76172 0.50391 1.6094 0.75391 2.4961 0.69531 0.66016-0.042969 1.3242-0.25391 1.9766-0.65234 0.63281-0.39063 1.2539-0.68359 1.8242-0.95703 2.2109-1.0508 3.875-1.8438 4.6641-5.7734 0.30469-1.5078 0.25391-2.8828-0.097657-4.0312-0.28125-0.92578-0.75391-1.707-1.3945-2.3125-0.64844-0.61328-1.4648-1.0352-2.418-1.2266-1.0312-0.20703-2.2227-0.14062-3.5352 0.26172zm-13.102-4.625c-1.0352-1.0117-3.1016-1.875-6.0312-2.3828-2.6484-0.46094-3.9492 0.046876-4.5586 1.0039-0.68359 1.0664-0.72656 2.8242-0.72656 4.5 0 1.5156 0.61328 2.8867 1.6055 3.8789 0.99219 0.99219 2.3633 1.6055 3.8789 1.6055 1.7344 0 2.582-1.4453 3.5273-3.0664 0.63281-1.082 1.3047-2.2266 2.2891-3.2344 0.35156-0.35937 0.55078-0.69922 0.60156-1.0039 0.03125-0.19141 0.011718-0.37891-0.0625-0.5625-0.09375-0.23828-0.27344-0.48438-0.52344-0.73047zm-5.6367-4.6992c-3.7969-0.66016-5.8242 0.32422-6.9336 2.0586-1.0352 1.6211-1.1016 3.7539-1.1016 5.7578 0 2.1641 0.87891 4.1211 2.2969 5.543 1.418 1.418 3.3789 2.2969 5.543 2.2969 3.0742 0 4.2422-1.9961 5.5547-4.2344 0.5625-0.95703 1.1523-1.9727 1.9492-2.7852 0.69531-0.71484 1.1016-1.4727 1.2344-2.2461 0.10938-0.62109 0.039062-1.2344-0.19922-1.8359-0.21875-0.54297-0.57422-1.0586-1.0664-1.5391-1.3594-1.3281-3.8633-2.4258-7.2734-3.0195zm24.961 0.58984c0.19531-0.14453 0.23828-0.58984 0.046875-1.5156-0.34766-1.6641-0.83203-2.3867-1.3242-2.5547-0.15234-0.050782-0.33203-0.039063-0.51953 0.015624-0.25781 0.074219-0.51953 0.22656-0.76562 0.42188-0.69922 0.55469-1.2305 1.2852-1.1562 1.6016 0.26172 1.0781 0.42188 1.6289 0.63281 1.8359 0.15234 0.14844 0.58984 0.21484 1.3828 0.30469 0.78906 0.089844 1.4297 0.097656 1.7031-0.10938zm2.3477-1.9922c-0.55078-2.6328-1.6445-3.8867-2.8789-4.3008-0.64844-0.21875-1.3008-0.19922-1.9297-0.011719-0.55469 0.16406-1.0859 0.46484-1.5586 0.83594-1.3359 1.0547-2.2539 2.8789-1.9844 3.9922 0.36719 1.5234 0.66016 2.3633 1.2773 2.9648 0.67578 0.65625 1.4414 0.80469 2.7656 0.95703 1.3281 0.15234 2.5078 0.082032 3.3672-0.55859 0.94141-0.70312 1.3516-1.8945 0.9375-3.8789zm-11.488-30.727c0.41016-0.30859 0.54297-1.0625 0.23438-2.543-0.51953-2.4844-1.3047-3.5859-2.1289-3.8633-0.30859-0.10156-0.64453-0.085938-0.98828 0.015625-0.41406 0.12109-0.82812 0.35938-1.2109 0.66016-1.0898 0.85938-1.8984 2.0781-1.7539 2.668 0.37891 1.5742 0.62891 2.3906 0.99609 2.75 0.3125 0.30078 0.97656 0.40625 2.1758 0.54297 1.1953 0.13672 2.1797 0.13281 2.6719-0.23438zm2.5352-3.0195c-0.71875-3.4492-2.1172-5.082-3.6797-5.6094-0.80078-0.26953-1.6133-0.24219-2.3945-0.011719-0.71094 0.21094-1.3906 0.59375-2.0039 1.0742-1.7266 1.3633-2.918 3.6719-2.582 5.0625 0.48828 2.0195 0.86719 3.1289 1.6406 3.8828 0.83203 0.80859 1.8281 1 3.5547 1.1953 1.7305 0.19531 3.2578 0.11719 4.3359-0.6875 1.1562-0.86328 1.6562-2.3672 1.1289-4.9062z" fill="#554c4c" fill-rule="evenodd"/>
</svg>
