<?xml version="1.0" encoding="UTF-8"?>
<svg width="100pt" height="100pt" version="1.1" viewBox="0 0 100 100" xmlns="http://www.w3.org/2000/svg">
 <g fill="#554c4c">
  <path d="m24.734 45.781c2.7812 0 5.043-2.2734 5.043-5.0625s-2.2617-5.0625-5.043-5.0625-5.043 2.2734-5.043 5.0625c-0.003906 2.7891 2.2617 5.0625 5.043 5.0625zm0-8.125c1.6797 0 3.043 1.375 3.043 3.0625s-1.3672 3.0625-3.043 3.0625c-1.6797 0-3.043-1.375-3.043-3.0625-0.003906-1.6914 1.3633-3.0625 3.043-3.0625z"/>
  <path d="m24.734 65.332c-3.0156 0-5.4648 2.4609-5.4648 5.4883 0 3.0234 2.4531 5.4844 5.4648 5.4844s5.4648-2.4609 5.4648-5.4844c0-3.0273-2.4531-5.4883-5.4648-5.4883zm0 8.9727c-1.9102 0-3.4648-1.5625-3.4648-3.4844 0-1.9219 1.5547-3.4883 3.4648-3.4883s3.4648 1.5625 3.4648 3.4883c0 1.9219-1.5547 3.4844-3.4648 3.4844z"/>
  <path d="m24.734 62.539c3.8359 0 6.9531-3.1328 6.9531-6.9844 0-3.8516-3.1211-6.9844-6.9531-6.9844-3.8359 0-6.9531 3.1328-6.9531 6.9844-0.003906 3.8516 3.1172 6.9844 6.9531 6.9844zm0-11.969c2.7344 0 4.9531 2.2344 4.9531 4.9844 0 2.7461-2.2227 4.9844-4.9531 4.9844s-4.9531-2.2344-4.9531-4.9844c-0.003906-2.7461 2.2188-4.9844 4.9531-4.9844z"/>
  <path d="m11 70.781c-0.55078 0-1 0.44531-1 1s0.44922 1 1 1h2.3828c0.46094 5.8633 5.3711 10.492 11.352 10.492 5.9766 0 10.887-4.6289 11.352-10.492h2.3828c0.55078 0 1-0.44531 1-1s-0.44922-1-1-1h-2.3359v-8.5352h2.3359c0.55078 0 1-0.44531 1-1 0-0.55469-0.44922-1-1-1h-2.3359v-8.5352h2.3359c0.55078 0 1-0.44531 1-1 0-0.55469-0.44922-1-1-1h-2.3359v-8.5352h2.3359c0.55078 0 1-0.44531 1-1 0-0.55469-0.44922-1-1-1h-2.3828c-0.46094-5.8633-5.3711-10.492-11.352-10.492s-10.887 4.6328-11.352 10.492l-2.3828 0.003907c-0.55078 0-1 0.44531-1 1 0 0.55469 0.44922 1 1 1h2.3359v8.5352l-2.3359-0.003906c-0.55078 0-1 0.44531-1 1 0 0.55469 0.44922 1 1 1h2.3359v8.5352h-2.3359c-0.55078 0-1 0.44531-1 1 0 0.55469 0.44922 1 1 1h2.3359v8.5352zm4.3359-30.703c0-5.1797 4.2148-9.3984 9.3984-9.3984s9.3984 4.2148 9.3984 9.3984v31.797c0 5.1797-4.2148 9.3984-9.3984 9.3984s-9.3984-4.2148-9.3984-9.3984z"/>
  <path d="m86.664 48.062c-2.1523-2.1523-5.0156-3.3359-8.0586-3.3359-2.7422 0-5.3281 0.96875-7.3906 2.7305l-1.6836-1.6836c-0.39062-0.39063-1.0234-0.39063-1.4141 0-0.39063 0.39062-0.39063 1.0234 0 1.4141l1.6523 1.6523-6.0352 6.0352-1.6523-1.6523c-0.39062-0.39062-1.0234-0.39062-1.4141 0s-0.39062 1.0234 0 1.4141l1.6523 1.6523-6.0352 6.0352-1.6523-1.6523c-0.39062-0.39062-1.0234-0.39062-1.4141 0s-0.39062 1.0234 0 1.4141l1.6523 1.6523-6.0352 6.0352-1.6523-1.6523c-0.39062-0.39062-1.0234-0.39062-1.4141 0s-0.39062 1.0234 0 1.4141l1.6836 1.6836c-1.7617 2.0625-2.7305 4.6484-2.7305 7.3906 0 3.0469 1.1875 5.9062 3.3398 8.0586 2.2227 2.2227 5.1406 3.332 8.0586 3.332 2.6367 0 5.2656-0.91406 7.3867-2.7266l1.6836 1.6836c0.19531 0.19531 0.45312 0.29297 0.70703 0.29297 0.25391 0 0.51172-0.097656 0.70703-0.29297 0.39062-0.39062 0.39062-1.0234 0-1.4141l-1.6523-1.6523 6.0352-6.0352 1.6523 1.6523c0.19531 0.19531 0.45312 0.29297 0.70703 0.29297s0.51172-0.097656 0.70703-0.29297c0.39062-0.39062 0.39062-1.0234 0-1.4141l-1.6523-1.6523 6.0352-6.0352 1.6523 1.6523c0.19531 0.19531 0.45312 0.29297 0.70703 0.29297s0.51172-0.097656 0.70703-0.29297c0.39062-0.39062 0.39062-1.0234 0-1.4141l-1.6523-1.6523 6.0352-6.0352 1.6523 1.6523c0.19531 0.19531 0.45313 0.29297 0.70703 0.29297s0.51172-0.097656 0.70703-0.29297c0.39062-0.39062 0.39062-1.0234 0-1.4141l-1.6836-1.6836c1.7617-2.0586 2.7305-4.6484 2.7305-7.3906 0-3.043-1.1836-5.9062-3.3359-8.0586zm-1.4141 14.703-14.965 14.965h-0.003906v0.003906l-7.5117 7.5117c-3.668 3.668-9.6289 3.668-13.293 0.003906-1.7734-1.7734-2.7539-4.1328-2.7539-6.6445 0-2.5078 0.97656-4.8672 2.7539-6.6445l22.48-22.48c1.7734-1.7734 4.1328-2.75 6.6445-2.75 2.5078 0 4.8711 0.97656 6.6445 2.75 1.7734 1.7734 2.7539 4.1328 2.7539 6.6445 0 2.5078-0.97656 4.8672-2.75 6.6406z"/>
  <path d="m74.586 53.004c-1.9727 1.9727-1.9805 5.1797-0.015626 7.1484 0.95313 0.94922 2.2188 1.4727 3.5625 1.4727h0.011719c1.3477-0.003906 2.6172-0.53125 3.5742-1.4883 1.9727-1.9766 1.9805-5.1797 0.015625-7.1484-1.9648-1.9648-5.1719-1.957-7.1484 0.015625zm5.7188 5.7188c-0.57813 0.57812-1.3477 0.89844-2.1641 0.90234h-0.007813c-0.8125 0-1.5742-0.31641-2.1484-0.88672-1.1875-1.1875-1.1797-3.125 0.015625-4.3203 0.60156-0.60156 1.3867-0.89844 2.1719-0.89844 0.77734 0 1.5547 0.29688 2.1484 0.88672 1.1875 1.1875 1.1797 3.125-0.015624 4.3164z"/>
  <path d="m53.004 73.992c-1.0352 1.0352-1.6094 2.4102-1.6133 3.875-0.003906 1.4648 0.5625 2.8398 1.5977 3.8711 1.0312 1.0312 2.3984 1.5977 3.8594 1.5977h0.011719c1.4609-0.003907 2.8359-0.57422 3.875-1.6094 2.1367-2.1406 2.1445-5.6133 0.015625-7.7461-2.1289-2.1367-5.6055-2.1289-7.7461 0.011719zm6.3164 6.3125c-0.66016 0.66016-1.5352 1.0234-2.4648 1.0234h-0.007813c-0.92578 0-1.793-0.35938-2.4453-1.0117s-1.0117-1.5234-1.0117-2.4531c0.003906-0.92969 0.36719-1.8047 1.0273-2.4648 0.68359-0.68359 1.5781-1.0234 2.4727-1.0234 0.88672 0 1.7695 0.33594 2.4453 1.0078 1.3516 1.3594 1.3438 3.5625-0.015626 4.9219z"/>
  <path d="m67.691 60.094h-0.015625c-1.8594 0.003906-3.6094 0.73438-4.9297 2.0508-1.3203 1.3164-2.0469 3.0703-2.0508 4.9297-0.003906 1.8633 0.71875 3.6094 2.0312 4.9258 1.3516 1.3516 3.1289 2.0273 4.9102 2.0273 1.7891 0 3.582-0.68359 4.9453-2.0469 2.7227-2.7227 2.7305-7.1445 0.019531-9.8555-1.3125-1.3086-3.0547-2.0312-4.9102-2.0312zm3.4727 10.473c-1.9453 1.9453-5.0977 1.9531-7.0273 0.019532-0.93359-0.9375-1.4492-2.1797-1.4453-3.5078s0.52344-2.5781 1.4648-3.5195 2.1914-1.4609 3.5195-1.4648h0.011719c1.3203 0 2.5625 0.51172 3.4961 1.4453 1.9336 1.9336 1.9258 5.0859-0.019532 7.0273z"/>
  <path d="m55.574 32.793c0.875 0.39453 1.7969 0.58203 2.6992 0.58203 2.5234 0 4.9414-1.4531 6.043-3.9023 0.72266-1.6094 0.77734-3.4062 0.14844-5.0586-0.62891-1.6523-1.8594-2.9609-3.4727-3.6836-3.3242-1.4961-7.25-0.007813-8.7422 3.3203-0.72266 1.6094-0.77734 3.4062-0.14844 5.0586 0.62891 1.6484 1.8633 2.9609 3.4727 3.6836zm-1.4961-7.9258c0.76562-1.707 2.4531-2.7227 4.2148-2.7227 0.63281 0 1.2734 0.12891 1.8828 0.40625 1.125 0.50391 1.9844 1.418 2.4219 2.5703s0.39844 2.4062-0.10547 3.5312c-1.043 2.3203-3.7773 3.3594-6.0977 2.3164-1.125-0.50391-1.9844-1.418-2.4219-2.5703-0.4375-1.1523-0.39844-2.4062 0.10547-3.5312z"/>
  <path d="m43.77 35.141c0.1875 0.32031 0.52344 0.5 0.86719 0.5 0.16797 0 0.33984-0.042969 0.5-0.13281l2.2461-1.2969c0.92578 1.3516 2.1016 2.5234 3.4531 3.4531l-1.2969 2.2461c-0.27734 0.47656-0.11328 1.0898 0.36719 1.3672 0.15625 0.089844 0.32812 0.13281 0.5 0.13281 0.34375 0 0.67969-0.17969 0.86719-0.5l1.3008-2.2539c1.4453 0.69922 3.0352 1.1406 4.7109 1.2656v2.5977c0 0.55469 0.44922 1 1 1 0.55078 0 1-0.44531 1-1v-2.5977c1.6797-0.125 3.2656-0.57031 4.7109-1.2656l1.3008 2.2539c0.18359 0.32031 0.51953 0.5 0.86719 0.5 0.16797 0 0.34375-0.042968 0.5-0.13281 0.47656-0.27734 0.64063-0.88672 0.36719-1.3672l-1.2969-2.2461c1.3516-0.92578 2.5234-2.0977 3.4531-3.4531l2.2461 1.2969c0.15625 0.089844 0.32812 0.13281 0.5 0.13281 0.34375 0 0.67969-0.17969 0.86719-0.5 0.27734-0.47656 0.11328-1.0898-0.36719-1.3672l-2.2539-1.3008c0.69922-1.4453 1.1406-3.0352 1.2656-4.7148h2.5977c0.55078 0 1-0.44531 1-1 0-0.55469-0.44922-1-1-1h-2.5977c-0.125-1.6797-0.57031-3.2656-1.2656-4.7109l2.2539-1.3008c0.47656-0.27734 0.64062-0.88672 0.36719-1.3672-0.27734-0.47656-0.88672-0.64453-1.3672-0.36719l-2.2461 1.2969c-0.92578-1.3516-2.1016-2.5234-3.4531-3.4531l1.2969-2.2461c0.27734-0.47656 0.11328-1.0898-0.36719-1.3672-0.48047-0.27734-1.0898-0.11328-1.3672 0.36719l-1.3008 2.2539c-1.4453-0.69922-3.0352-1.1406-4.7109-1.2656v-2.5977c0-0.55469-0.44922-1-1-1-0.55078 0-1 0.44531-1 1v2.5977c-1.6797 0.125-3.2656 0.57031-4.7109 1.2656l-1.3008-2.2539c-0.27344-0.48047-0.89063-0.64062-1.3672-0.36719-0.47656 0.27734-0.64062 0.88672-0.36719 1.3672l1.2969 2.2461c-1.3516 0.92578-2.5273 2.0977-3.4531 3.4531l-2.2461-1.2969c-0.48047-0.27734-1.0898-0.10938-1.3672 0.36719-0.27734 0.47656-0.11328 1.0898 0.36719 1.3672l2.2539 1.3008c-0.69922 1.4453-1.1406 3.0352-1.2656 4.7109h-2.6016c-0.55078 0-1 0.44531-1 1 0 0.55469 0.44922 1 1 1h2.6016c0.125 1.6797 0.57031 3.2656 1.2656 4.7148l-2.2539 1.3008c-0.47656 0.27734-0.64062 0.89062-0.36719 1.3672zm14.516-19.594c6.1836 0 11.211 5.0312 11.211 11.211 0 6.1836-5.0312 11.211-11.211 11.211-6.1836 0-11.211-5.0312-11.211-11.211 0-6.1797 5.0312-11.211 11.211-11.211z"/>
  <path d="m27.289 10c-1.3984 0-2.7148 0.54688-3.7031 1.5352-0.98828 0.98828-1.5352 2.3047-1.5352 3.7031 0 1.3984 0.54688 2.7148 1.5352 3.7031l5.4609 5.4609c1.0234 1.0234 2.3633 1.5312 3.7031 1.5312 1.3438 0 2.6836-0.51172 3.7031-1.5312 0.98828-0.99219 1.5352-2.3047 1.5352-3.7031 0-1.3984-0.54688-2.7148-1.5352-3.7031l-5.4609-5.4609c-0.98828-0.98828-2.3047-1.5352-3.7031-1.5352zm8.6992 10.703c0 0.86719-0.33594 1.6797-0.94922 2.2891-1.2656 1.2656-3.3203 1.2617-4.582 0l-5.4609-5.4609c-0.61328-0.61328-0.94922-1.4258-0.94922-2.2891 0-0.86719 0.33594-1.6797 0.94922-2.2891 0.61328-0.61719 1.4258-0.95312 2.293-0.95312 0.86719 0 1.6797 0.33594 2.2891 0.94922l5.4609 5.4609c0.61328 0.61328 0.94922 1.4258 0.94922 2.293z"/>
  <path d="m79.484 33.547c0 2.8906 2.3516 5.2383 5.2383 5.2422 2.8906 0 5.2383-2.3516 5.2383-5.2422v-7.7227c0-2.8906-2.3516-5.2422-5.2383-5.2422-2.8906 0-5.2422 2.3516-5.2422 5.2422zm2-7.7266c0-1.7891 1.4531-3.2422 3.2422-3.2422 1.7852 0 3.2383 1.4531 3.2383 3.2422v7.7227c0 1.7852-1.4531 3.2422-3.2383 3.2422-1.7891 0-3.2422-1.4531-3.2422-3.2422z"/>
 </g>
</svg>
