<?xml version="1.0" encoding="UTF-8"?>
<svg width="100pt" height="100pt" version="1.1" viewBox="0 0 100 100" xmlns="http://www.w3.org/2000/svg">
 <g fill="#554c4c">
  <path d="m71.812 24.359c-0.95312-0.42969-2.0234-0.46094-3.0039-0.089844-0.98047 0.37109-1.7578 1.1016-2.1875 2.0586-0.42969 0.95703-0.46094 2.0234-0.089844 3.0039l2.2656 5.9648c0.37109 0.98047 1.1016 1.7578 2.0586 2.1875 0.51562 0.23047 1.0625 0.34766 1.6094 0.34766 0.46875 0 0.94141-0.085937 1.3945-0.25781 0.98047-0.37109 1.7578-1.1016 2.1875-2.0586s0.46094-2.0234 0.089844-3.0039l-2.2656-5.9648c-0.37109-0.98438-1.1055-1.7578-2.0586-2.1875zm2.4102 10.332c-0.21094 0.46875-0.58984 0.82812-1.0703 1.0117-0.48047 0.17969-1 0.16797-1.4727-0.042969-0.46875-0.21094-0.82813-0.58984-1.0117-1.0703l-2.2656-5.9648c-0.18359-0.48047-0.16797-1.0039 0.042968-1.4727 0.21094-0.46875 0.59375-0.82812 1.0703-1.0117 0.22266-0.085937 0.45312-0.125 0.68359-0.125 0.26562 0 0.53516 0.058594 0.78906 0.17188 0.46875 0.21094 0.82812 0.58984 1.0117 1.0703l2.2656 5.9648c0.18359 0.47656 0.16797 1-0.042969 1.4688z"/>
  <path d="m15.438 26.016c0.51562 0.23047 1.0625 0.34766 1.6094 0.34766 0.46875 0 0.94141-0.085937 1.3945-0.25781 2.0234-0.76953 3.043-3.0391 2.2734-5.0625l-2.2656-5.9648c-0.76953-2.0234-3.043-3.0469-5.0625-2.2734-2.0234 0.76953-3.043 3.0391-2.2734 5.0625l2.2656 5.9648c0.37109 0.97266 1.1016 1.7539 2.0586 2.1836zm-1.3438-11.348c0.99219-0.375 2.1055 0.125 2.4844 1.1172l2.2656 5.9648c0.375 0.99219-0.125 2.1055-1.1172 2.4844-0.48437 0.17969-1.0039 0.16797-1.4727-0.042969-0.46875-0.21094-0.82812-0.59375-1.0117-1.0742l-2.2656-5.9648c-0.375-0.99219 0.125-2.1055 1.1172-2.4844z"/>
  <path d="m13.121 51.293c0.51953 0.23438 1.0664 0.34375 1.6016 0.34375 1.5 0 2.9336-0.86328 3.5859-2.3164l2.6172-5.8203c0.42969-0.95703 0.46094-2.0234 0.089844-3-0.37109-0.98047-1.1016-1.7578-2.0586-2.1875-1.9727-0.89062-4.3008-0.003906-5.1875 1.9688l-2.6172 5.8203c-0.89062 1.9766-0.003906 4.3047 1.9688 5.1914zm-0.14844-4.3711 2.6172-5.8203c0.32031-0.71094 1.0234-1.1367 1.7578-1.1367 0.26172 0 0.53125 0.054687 0.78516 0.16797 0.46875 0.21094 0.82813 0.59375 1.0117 1.0703 0.18359 0.48047 0.16797 1.0039-0.042969 1.4727l-2.6172 5.8203c-0.43359 0.96875-1.5742 1.4023-2.543 0.96875-0.96875-0.42969-1.4023-1.5742-0.96875-2.543z"/>
  <path d="m87.699 32.43c-1.9766-0.89063-4.3008-0.003907-5.1875 1.9688l-2.6172 5.8203c-0.42969 0.95703-0.46094 2.0234-0.089843 3 0.375 0.98047 1.1055 1.7578 2.0625 2.1875 0.51562 0.23047 1.0586 0.34766 1.6094 0.34766 0.46875 0 0.94141-0.085937 1.3945-0.25781 0.98047-0.37109 1.7578-1.1016 2.1875-2.0586l2.6172-5.8203c0.88281-1.9688-0.003906-4.2969-1.9766-5.1875zm0.14844 4.3711-2.6172 5.8203c-0.21094 0.46875-0.59375 0.82812-1.0703 1.0117-0.48047 0.17969-1.0039 0.16797-1.4727-0.042968-0.46875-0.21094-0.82812-0.59375-1.0117-1.0703-0.18359-0.48047-0.16797-1.0039 0.042969-1.4727l2.6172-5.8203c0.32031-0.71094 1.0234-1.1367 1.7578-1.1367 0.26562 0 0.53125 0.054687 0.78516 0.16797 0.96875 0.43359 1.4023 1.5742 0.96875 2.543z"/>
  <path d="m82.883 17.594c2.0234-0.76953 3.043-3.0391 2.2734-5.0625-0.37109-0.98047-1.1016-1.7578-2.0586-2.1875-0.95703-0.42969-2.0234-0.46094-3.0039-0.089844l-5.9648 2.2656c-2.0234 0.76953-3.043 3.0391-2.2734 5.0625 0.37109 0.98047 1.1016 1.7578 2.0586 2.1875 0.51563 0.23047 1.0586 0.34766 1.6094 0.34766 0.46875 0 0.94141-0.085938 1.3945-0.25781zm-8.1484 0.35156c-0.46875-0.21094-0.82812-0.58984-1.0117-1.0703-0.375-0.99219 0.125-2.1094 1.1172-2.4844l5.9648-2.2656c0.22656-0.082031 0.45703-0.125 0.6875-0.125 0.26953 0 0.53516 0.054688 0.78906 0.17188 0.46875 0.21094 0.82812 0.59375 1.0117 1.0703 0.375 0.99219-0.125 2.1055-1.1172 2.4844l-5.9648 2.2656c-0.48438 0.17969-1.0039 0.16406-1.4766-0.046876z"/>
  <path d="m30.781 65.742c-1.7109-0.76953-3.6211-0.82813-5.3711-0.16016-1.7539 0.66406-3.1406 1.9766-3.9102 3.6836-0.76953 1.7109-0.82422 3.6172-0.16016 5.3711 0.66406 1.7539 1.9766 3.1406 3.6836 3.9102 0.92187 0.41406 1.8945 0.62109 2.875 0.62109 0.84375 0 1.6875-0.15234 2.4961-0.46094 1.7539-0.66406 3.1406-1.9766 3.9102-3.6836 1.5859-3.5352 0.003906-7.6953-3.5234-9.2812zm1.6992 8.457c-0.55078 1.2227-1.543 2.1602-2.7969 2.6328-1.2539 0.47656-2.6172 0.4375-3.8398-0.11328s-2.1602-1.543-2.6328-2.7969c-0.47656-1.2539-0.4375-2.6172 0.11328-3.8398 0.55078-1.2227 1.543-2.1602 2.7969-2.6328 0.57812-0.21875 1.1836-0.32812 1.7852-0.32812 0.69922 0 1.3984 0.14844 2.0547 0.44531 2.5234 1.1328 3.6523 4.1094 2.5195 6.6328z"/>
  <path d="m72.18 61.277c-1.9922-0.89453-4.2188-0.96094-6.2617-0.1875-2.043 0.77734-3.6641 2.3008-4.5586 4.2969-0.89844 1.9961-0.96094 4.2188-0.1875 6.2617 0.77734 2.043 2.3047 3.6641 4.2969 4.5586 1.0703 0.48438 2.2109 0.72266 3.3516 0.72266 0.98047 0 1.9648-0.17969 2.9102-0.53906 2.043-0.77734 3.6641-2.3047 4.5586-4.2969 1.8516-4.1094 0.007813-8.9648-4.1094-10.816zm2.2891 10c-0.67969 1.5078-1.9023 2.6602-3.4453 3.2461-1.543 0.58594-3.2266 0.53906-4.7305-0.14063-1.5078-0.67578-2.6602-1.8984-3.2461-3.4453s-0.53906-3.2266 0.14062-4.7344c0.67578-1.5078 1.8984-2.6602 3.4453-3.2461 0.71484-0.27344 1.457-0.40625 2.1992-0.40625 0.86328 0 1.7227 0.18359 2.5312 0.54688 1.5078 0.67969 2.6602 1.9023 3.2461 3.4453 0.58594 1.5508 0.53516 3.2305-0.14062 4.7344z"/>
  <path d="m44.805 73.141c0.55469 0 1-0.44531 1-1s-0.44531-1-1-1h-2.8555c-0.12891-1.8398-0.61328-3.5781-1.3828-5.1562l2.4766-1.4297c0.47656-0.27734 0.64062-0.88672 0.36719-1.3672-0.27734-0.48047-0.89062-0.64062-1.3672-0.36719l-2.4648 1.4258c-1.0078-1.4844-2.293-2.7695-3.7773-3.7773l1.4219-2.4648c0.27734-0.47656 0.11328-1.0898-0.36719-1.3672-0.47656-0.27734-1.0898-0.10938-1.3672 0.36719l-1.4297 2.4766c-1.5781-0.76953-3.3164-1.2539-5.1562-1.3828v-2.8555c0-0.55469-0.44531-1-1-1-0.55469 0-1 0.44531-1 1v2.8555c-1.8398 0.12891-3.5781 0.61328-5.1562 1.3828l-1.4297-2.4766c-0.27734-0.48047-0.89062-0.64062-1.3672-0.36719-0.47656 0.27734-0.64062 0.88672-0.36719 1.3672l1.4219 2.4648c-1.4844 1.0078-2.7695 2.293-3.7773 3.7773l-2.4648-1.4219c-0.47656-0.27734-1.0898-0.11328-1.3672 0.36719-0.27734 0.47656-0.11328 1.0898 0.36719 1.3672l2.4766 1.4297c-0.76953 1.5781-1.2539 3.3164-1.3828 5.1562h-2.8555c-0.55469 0-1 0.44531-1 1 0 0.55469 0.44531 1 1 1h2.8555c0.12891 1.8398 0.61328 3.5781 1.3828 5.1562l-2.4766 1.4297c-0.47656 0.27734-0.64062 0.88672-0.36719 1.3672 0.1875 0.32031 0.52344 0.5 0.86719 0.5 0.17188 0 0.34375-0.042968 0.5-0.13281l2.4648-1.4219c1.0078 1.4844 2.293 2.7695 3.7773 3.7773l-1.4258 2.4648c-0.27734 0.47656-0.11328 1.0898 0.36719 1.3672 0.15625 0.089844 0.32813 0.13281 0.5 0.13281 0.34375 0 0.67969-0.17969 0.86719-0.5l1.4297-2.4766c1.5781 0.76953 3.3164 1.2539 5.1562 1.3828v2.8555c0 0.55469 0.44531 1 1 1 0.55469 0 1-0.44531 1-1v-2.8555c1.8398-0.12891 3.5781-0.61328 5.1562-1.3828l1.4297 2.4766c0.1875 0.32031 0.52344 0.5 0.86719 0.5 0.17188 0 0.34375-0.042968 0.5-0.13281 0.47656-0.27734 0.64063-0.88672 0.36719-1.3672l-1.4219-2.4648c1.4844-1.0078 2.7695-2.293 3.7773-3.7773l2.4648 1.4219c0.15625 0.089844 0.32813 0.13281 0.5 0.13281 0.34375 0 0.67969-0.17969 0.86719-0.5 0.27734-0.47656 0.11328-1.0898-0.36719-1.3672l-2.4766-1.4297c0.76953-1.5781 1.2539-3.3164 1.3828-5.1562zm-16.902 11.098c-6.6719 0-12.094-5.4258-12.094-12.094 0-6.6719 5.4258-12.094 12.094-12.094 6.668 0 12.094 5.4258 12.094 12.094s-5.4258 12.094-12.094 12.094z"/>
  <path d="m46.516 23.539c-1.9727-0.88672-4.1719-0.95312-6.1953-0.18359-2.0195 0.76562-3.6211 2.2773-4.5078 4.25-0.88672 1.9727-0.95312 4.1719-0.18359 6.1953 0.76562 2.0195 2.2773 3.6211 4.25 4.5078 1.0625 0.47656 2.1875 0.71484 3.3164 0.71484 0.96875 0 1.9453-0.17578 2.8789-0.53125 2.0195-0.76563 3.6211-2.2773 4.5078-4.25 0.88672-1.9727 0.95312-4.1719 0.18359-6.1953-0.76562-2.0234-2.2773-3.625-4.25-4.5078zm2.2422 9.8789c-0.66797 1.4844-1.8711 2.6211-3.3945 3.1992-1.5195 0.57812-3.1797 0.53125-4.6641-0.14063-1.4844-0.66797-2.6211-1.8711-3.1992-3.3945-0.57812-1.5195-0.52734-3.1758 0.14062-4.6602s1.8711-2.6211 3.3945-3.1992c0.70312-0.26562 1.4336-0.39844 2.1641-0.39844 0.85156 0 1.6992 0.17969 2.4961 0.53906 1.4844 0.66797 2.6211 1.8711 3.1992 3.3945 0.58203 1.5195 0.53125 3.1758-0.13672 4.6602z"/>
  <path d="m63.117 31.922c0.55469 0 1-0.44531 1-1s-0.44531-1-1-1h-3.5352c-0.13672-2.2617-0.73047-4.3984-1.6953-6.3281l3.0625-1.7656c0.47656-0.27734 0.64062-0.88672 0.36719-1.3672-0.27734-0.48047-0.89062-0.64063-1.3672-0.36719l-3.0547 1.7617c-1.2188-1.8359-2.7969-3.4141-4.6328-4.6328l1.7617-3.0547c0.27734-0.47656 0.11328-1.0898-0.36719-1.3672-0.47656-0.27734-1.0898-0.11328-1.3672 0.36719l-1.7656 3.0625c-1.9258-0.96484-4.0625-1.5586-6.3281-1.6953l0.003907-3.5352c0-0.55469-0.44531-1-1-1-0.55469 0-1 0.44531-1 1v3.5352c-2.2617 0.13672-4.3984 0.73047-6.3281 1.6953l-1.7656-3.0625c-0.27734-0.48047-0.89062-0.64062-1.3672-0.36719-0.47656 0.27734-0.64062 0.88672-0.36719 1.3672l1.7617 3.0547c-1.8359 1.2188-3.4141 2.7969-4.6328 4.6328l-3.0508-1.7617c-0.47656-0.27734-1.0898-0.11328-1.3672 0.36719-0.27734 0.47656-0.11328 1.0898 0.36719 1.3672l3.0625 1.7656c-0.96484 1.9258-1.5586 4.0625-1.6953 6.3281h-3.5352c-0.55469 0-1 0.44531-1 1s0.44531 1 1 1h3.5352c0.13672 2.2617 0.73047 4.3984 1.6953 6.3281l-3.0625 1.7656c-0.47656 0.27734-0.64062 0.88672-0.36719 1.3672 0.1875 0.32031 0.52344 0.5 0.86719 0.5 0.17188 0 0.34375-0.042968 0.5-0.13281l3.0547-1.7617c1.2188 1.8359 2.7969 3.4141 4.6328 4.6328l-1.7617 3.0547c-0.27734 0.47656-0.11328 1.0898 0.36719 1.3672 0.15625 0.089843 0.32812 0.13281 0.5 0.13281 0.34375 0 0.67969-0.17969 0.86719-0.5l1.7656-3.0625c1.9258 0.96484 4.0625 1.5586 6.3281 1.6953v3.5352c0 0.55469 0.44531 1 1 1s1-0.44531 1-1l-0.003906-3.5391c2.2617-0.13672 4.3984-0.73047 6.3281-1.6953l1.7656 3.0625c0.1875 0.32031 0.52344 0.5 0.86719 0.5 0.17188 0 0.34375-0.042969 0.5-0.13281 0.47656-0.27734 0.64062-0.88672 0.36719-1.3672l-1.7617-3.0547c1.8359-1.2188 3.4141-2.7969 4.6328-4.6328l3.0547 1.7617c0.15625 0.089844 0.32812 0.13281 0.5 0.13281 0.34375 0 0.67969-0.17969 0.86719-0.5 0.27734-0.47656 0.11328-1.0898-0.36719-1.3672l-3.0625-1.7656c0.96484-1.9258 1.5586-4.0625 1.6953-6.3281zm-19.918 13.434c-7.9609 0-14.434-6.4766-14.434-14.434 0-7.9609 6.4766-14.434 14.434-14.434 7.9609 0 14.434 6.4766 14.434 14.434s-6.4766 14.434-14.434 14.434z"/>
  <path d="m89 67.742h-3.5938c-0.13672-2.2969-0.73828-4.4688-1.7188-6.4258l3.1094-1.7969c0.47656-0.27734 0.64062-0.88672 0.36719-1.3672-0.27734-0.48047-0.89062-0.64453-1.3672-0.36719l-3.1055 1.793c-1.2383-1.8672-2.8398-3.4688-4.707-4.707l1.793-3.1055c0.27734-0.47656 0.11328-1.0898-0.36719-1.3672-0.47656-0.27734-1.0898-0.11328-1.3672 0.36719l-1.7969 3.1094c-1.957-0.98047-4.125-1.582-6.4258-1.7188v-3.5938c0-0.55469-0.44531-1-1-1-0.55469 0-1 0.44531-1 1v3.5938c-2.3008 0.13672-4.4688 0.73828-6.4258 1.7188l-1.7969-3.1094c-0.27734-0.48047-0.89062-0.64453-1.3672-0.36719-0.47656 0.27734-0.64062 0.88672-0.36719 1.3672l1.793 3.1055c-1.8672 1.2383-3.4688 2.8398-4.707 4.707l-3.1055-1.793c-0.46875-0.27344-1.082-0.10547-1.3594 0.37109s-0.11328 1.0898 0.36719 1.3672l3.1133 1.7969c-0.98047 1.957-1.582 4.125-1.7188 6.4258h-3.5938c-0.55469 0-1 0.44531-1 1 0 0.55469 0.44531 1 1 1h3.5938c0.13672 2.2969 0.73828 4.4688 1.7188 6.4258l-3.1133 1.7969c-0.47656 0.27734-0.64062 0.88672-0.36719 1.3672 0.1875 0.32031 0.52344 0.5 0.86719 0.5 0.17188 0 0.34375-0.042969 0.5-0.13281l3.1055-1.793c1.2383 1.8672 2.8398 3.4688 4.707 4.707l-1.793 3.1055c-0.27734 0.47656-0.11328 1.0898 0.36719 1.3672 0.15625 0.089844 0.32812 0.13281 0.5 0.13281 0.34375 0 0.67969-0.17969 0.86719-0.5l1.7969-3.1133c1.957 0.98047 4.125 1.582 6.4258 1.7188v3.5938c0 0.55469 0.44531 1 1 1s1-0.44531 1-1v-3.5938c2.2969-0.13672 4.4688-0.73828 6.4258-1.7188l1.7969 3.1133c0.1875 0.32031 0.52344 0.5 0.86719 0.5 0.17188 0 0.34375-0.042968 0.5-0.13281 0.47656-0.27734 0.64062-0.88672 0.36719-1.3672l-1.793-3.1055c1.8672-1.2383 3.4688-2.8398 4.707-4.707l3.1055 1.793c0.15625 0.089844 0.32812 0.13281 0.5 0.13281 0.34375 0 0.67969-0.17969 0.86719-0.5 0.27734-0.47656 0.11328-1.0898-0.36719-1.3672l-3.1094-1.7969c0.98047-1.957 1.582-4.125 1.7188-6.4258l3.5859-0.003906c0.55469 0 1-0.44531 1-1 0-0.55078-0.44531-1-1-1zm-20.176 15.633c-8.0703 0-14.633-6.5625-14.633-14.633 0-8.0664 6.5625-14.633 14.633-14.633 8.0664 0 14.633 6.5625 14.633 14.633 0 8.0703-6.5625 14.633-14.633 14.633z"/>
 </g>
</svg>
