<?xml version="1.0" encoding="UTF-8"?>
<svg width="100pt" height="100pt" version="1.1" viewBox="0 0 100 100" xmlns="http://www.w3.org/2000/svg">
 <g fill="#554c4c">
  <path d="m79.172 59.098c-0.51953 0-1.0508-0.039062-1.5898-0.11719-5.6562-0.875-9.5391-6.1797-8.6602-11.828 0.29297-1.8906-2.0469-2.7812-2.1484-2.8203-5.3555-1.9727-8.1211-7.9414-6.1602-13.305 1.5078-4.0625 5.4258-6.7891 9.75-6.7891 1.2148 0 2.4102 0.21484 3.5547 0.63281 6.3555 2.3359 17.77 10.664 15.484 25.445-0.79297 5.0898-5.0938 8.7812-10.23 8.7812zm-8.8125-31.922c-3.1055 0-5.9141 1.957-6.9922 4.8672-1.4062 3.8398 0.57422 8.1172 4.4102 9.5312 1.6211 0.58203 4.5703 2.5977 4.043 6.0234-0.625 4.0508 2.1562 7.8477 6.1992 8.4766 4.125 0.61719 7.8516-2.1836 8.4766-6.2031 1.9883-12.906-8.0234-20.191-13.602-22.238-0.80859-0.30078-1.668-0.45703-2.5352-0.45703z"/>
  <path d="m70.801 40.707c-3.2812 0-5.9492-2.6719-5.9492-5.9492 0-3.2812 2.668-5.9492 5.9492-5.9492s5.9531 2.6719 5.9531 5.9492c0.003906 3.2773-2.6719 5.9492-5.9531 5.9492zm0-8.9648c-1.6641 0-3.0117 1.3516-3.0117 3.0156 0 1.6641 1.3477 3.0156 3.0117 3.0156 1.6641 0 3.0156-1.3516 3.0156-3.0156 0-1.6641-1.3516-3.0156-3.0156-3.0156z"/>
  <path d="m51.191 91.406c-2.4414 0-4.7969-0.53516-6.9961-1.5938-33.332-15.863-34.406-51.027-30.316-67.402 1.8164-7.2695 8.3125-12.348 15.785-12.348 1.3281 0 2.668 0.16406 3.9766 0.48828 8.6484 2.168 13.984 10.98 11.887 19.648-0.51953 2.2148-4.5586 21.996 12.672 30.203 3.9297 1.8633 6.8945 5.1523 8.3516 9.2539 1.457 4.1055 1.2266 8.5234-0.64844 12.453-2.6758 5.6484-8.4531 9.2969-14.711 9.2969zm-21.527-78.406c-6.125 0-11.441 4.1602-12.934 10.121-3.8906 15.57-2.8906 48.992 28.73 64.047 1.8086 0.86719 3.7344 1.3086 5.7305 1.3086 5.1289 0 9.8633-2.9922 12.062-7.6211 1.5352-3.2227 1.7227-6.8477 0.52734-10.211-1.1914-3.3594-3.625-6.0547-6.8438-7.5859-19.301-9.1914-14.844-31.07-14.277-33.531 1.7266-7.1133-2.6445-14.344-9.7344-16.117-1.0703-0.27344-2.1641-0.41016-3.2617-0.41016z"/>
  <path d="m29.293 34.195c-3.9961 0-7.25-3.2539-7.25-7.25 0-3.9961 3.2539-7.25 7.25-7.25 3.9961 0 7.25 3.2539 7.25 7.25 0 4-3.2539 7.25-7.25 7.25zm0-11.562c-2.3828 0-4.3125 1.9375-4.3125 4.3125 0 2.3789 1.9336 4.3125 4.3125 4.3125 2.375 0 4.3125-1.9375 4.3125-4.3125s-1.9414-4.3125-4.3125-4.3125z"/>
  <path d="m50.961 83.137c-3.9961 0-7.25-3.2539-7.25-7.25 0-3.9961 3.2539-7.25 7.25-7.25 3.9961 0 7.25 3.2539 7.25 7.25 0 4-3.25 7.25-7.25 7.25zm0-11.562c-2.375 0-4.3125 1.9375-4.3125 4.3125 0 2.3789 1.9375 4.3125 4.3125 4.3125 2.3789 0 4.3125-1.9375 4.3125-4.3125s-1.9297-4.3125-4.3125-4.3125z"/>
  <path d="m35.074 71.84c-2.4023 0-4.3594-1.9531-4.3594-4.3594 0-2.4023 1.9531-4.3594 4.3594-4.3594 2.4023 0 4.3594 1.957 4.3594 4.3594 0 2.4023-1.957 4.3594-4.3594 4.3594zm0-5.7812c-0.78516 0-1.4219 0.64062-1.4219 1.4219 0 0.78516 0.63672 1.4219 1.4219 1.4219 0.78516 0 1.4219-0.63672 1.4219-1.4219 0-0.78516-0.63672-1.4219-1.4219-1.4219z"/>
  <path d="m36.977 58.637c-2.0938 0-3.7969-1.7031-3.7969-3.7969s1.7031-3.7969 3.7969-3.7969 3.7969 1.7031 3.7969 3.7969c0.003906 2.0898-1.7031 3.7969-3.7969 3.7969zm0-4.6602c-0.47656 0-0.85937 0.38672-0.85937 0.85938 0 0.47266 0.38672 0.85937 0.85937 0.85937 0.47266 0 0.85938-0.38672 0.85938-0.85937 0.003906-0.47266-0.38672-0.85938-0.85938-0.85938z"/>
  <path d="m26.199 48.781c-3.2812 0-5.9492-2.6719-5.9492-5.9492 0-3.2812 2.668-5.9492 5.9492-5.9492s5.9531 2.6719 5.9531 5.9492c0 3.2773-2.6719 5.9492-5.9531 5.9492zm0-8.9648c-1.6641 0-3.0117 1.3516-3.0117 3.0156 0 1.6641 1.3477 3.0156 3.0117 3.0156 1.6641 0 3.0195-1.3516 3.0195-3.0156 0-1.668-1.3555-3.0156-3.0195-3.0156z"/>
  <path d="m32.184 13c-0.15234 0-0.30859-0.023438-0.46484-0.074219-0.76953-0.25391-1.1875-1.0859-0.92969-1.8594l2.4648-7.418c0.25391-0.76563 1.0742-1.1914 1.8594-0.92969 0.76953 0.25391 1.1836 1.0859 0.92969 1.8594l-2.4688 7.418c-0.20312 0.61328-0.77734 1.0039-1.3906 1.0039z"/>
  <path d="m20.098 16.516c-0.44141 0-0.88281-0.19922-1.1719-0.58203l-5.2773-6.9805c-0.48828-0.64844-0.35938-1.5664 0.28516-2.0547 0.64844-0.48828 1.5664-0.35938 2.0547 0.28516l5.2773 6.9805c0.49219 0.64844 0.35938 1.5664-0.28125 2.0547-0.26562 0.19531-0.57812 0.29688-0.88672 0.29688z"/>
  <path d="m14.453 28.414c-0.10156 0-0.20703-0.011718-0.30859-0.035156l-8.2031-1.7852c-0.78906-0.17188-1.2891-0.95312-1.1172-1.7461 0.17188-0.79297 0.94141-1.3008 1.7422-1.1211l8.2031 1.7852c0.79297 0.17188 1.2891 0.95312 1.1172 1.7461-0.14844 0.6875-0.75781 1.1562-1.4336 1.1562z"/>
  <path d="m5.2773 44c-0.68359 0-1.2969-0.48047-1.4375-1.1758-0.16016-0.79297 0.35547-1.5703 1.1445-1.7305l8.3867-1.707c0.79297-0.16406 1.5703 0.35156 1.7305 1.1484 0.16016 0.79297-0.35156 1.5664-1.1484 1.7305l-8.3867 1.707c-0.09375 0.019532-0.19141 0.027344-0.28906 0.027344z"/>
  <path d="m8.4609 59.91c-0.55078 0-1.0781-0.30859-1.332-0.83984-0.34375-0.73437-0.027344-1.6094 0.69922-1.9531l7.6445-3.6055c0.73047-0.34375 1.6055-0.035157 1.957 0.69922 0.34375 0.73437 0.027343 1.6094-0.69922 1.957l-7.6445 3.6094c-0.20313 0.089844-0.41406 0.13281-0.625 0.13281z"/>
  <path d="m14.82 71.574c-0.61719 0-1.1992-0.39453-1.3984-1.0195-0.24609-0.76953 0.18359-1.5977 0.95312-1.8477l6.8984-2.2109c0.76172-0.23438 1.5938 0.17969 1.8477 0.94922 0.24609 0.76953-0.18359 1.5977-0.95312 1.8477l-6.8984 2.2109c-0.15234 0.046875-0.30078 0.070313-0.44922 0.070313z"/>
  <path d="m24.859 86.102c-0.38672 0-0.76953-0.14844-1.0547-0.44141-0.5625-0.58203-0.55078-1.5117 0.027343-2.0781l5.8281-5.6523c0.58594-0.56641 1.5156-0.55078 2.0742 0.027343 0.56641 0.58203 0.55078 1.5117-0.027344 2.0742l-5.8281 5.6523c-0.28516 0.28125-0.65234 0.41797-1.0195 0.41797z"/>
  <path d="m36.977 95.645c-0.21875 0-0.4375-0.046875-0.64062-0.14453-0.73047-0.35547-1.0312-1.2305-0.68359-1.9609l3.7773-7.8242c0.35547-0.73047 1.2383-1.0391 1.9609-0.68359 0.73047 0.35547 1.0391 1.2305 0.68359 1.9648l-3.7812 7.8242c-0.24609 0.51953-0.76953 0.82422-1.3164 0.82422z"/>
  <path d="m56.742 97.355c-0.61719 0-1.1992-0.39844-1.3984-1.0195l-2.0352-6.3945c-0.24609-0.77344 0.17969-1.6016 0.95312-1.8477 0.78516-0.24219 1.5938 0.18359 1.8477 0.95312l2.0352 6.3945c0.24609 0.77344-0.17969 1.6016-0.95312 1.8477-0.14844 0.046876-0.29688 0.066407-0.44922 0.066407z"/>
  <path d="m71.109 87.82c-0.23438 0-0.47656-0.058593-0.69922-0.17578l-7.1172-3.8359c-0.71094-0.38281-0.98047-1.2734-0.59766-1.9883 0.39063-0.71875 1.2773-0.97656 1.9883-0.59766l7.1172 3.8359c0.71875 0.38672 0.98047 1.2773 0.59766 1.9883-0.26172 0.49609-0.76563 0.77344-1.2891 0.77344z"/>
  <path d="m65.152 71.574c-0.62109 0-1.1992-0.39453-1.3984-1.0195-0.24609-0.76953 0.17969-1.6016 0.94531-1.8477l8.1602-2.6289c0.77344-0.25 1.6016 0.17578 1.8477 0.94531 0.25391 0.76953-0.17188 1.6016-0.94531 1.8477l-8.1602 2.6328c-0.15234 0.046875-0.30078 0.070313-0.44922 0.070313z"/>
  <path d="m55.73 62.23c-0.35938 0-0.72266-0.13281-1.0117-0.39844-0.58984-0.55859-0.61328-1.4844-0.058594-2.0742l5.5938-5.9297c0.55078-0.58984 1.4805-0.61719 2.0703-0.0625 0.58984 0.55859 0.61719 1.4844 0.0625 2.0742l-5.5938 5.9297c-0.28516 0.30859-0.67578 0.46094-1.0625 0.46094z"/>
  <path d="m45.18 47.188c-0.56641 0-1.1133-0.33594-1.3555-0.89844-0.31641-0.74609 0.035156-1.6094 0.78516-1.9258l6.8359-2.8906c0.74609-0.30859 1.6055 0.03125 1.9258 0.78125 0.31641 0.74609-0.035156 1.6094-0.78516 1.9258l-6.8359 2.8906c-0.1875 0.082032-0.375 0.11719-0.57031 0.11719z"/>
  <path d="m52.023 32.383c-0.0625 0-0.13281-0.003906-0.19531-0.015624l-7.9258-1.0625c-0.80469-0.10547-1.3711-0.84766-1.2617-1.6484 0.10938-0.80469 0.85547-1.4023 1.6523-1.2578l7.9258 1.0625c0.80469 0.10547 1.3633 0.84766 1.2578 1.6484-0.10156 0.73438-0.73047 1.2734-1.4531 1.2734z"/>
  <path d="m42.035 19.664c-0.40625 0-0.80859-0.16797-1.1016-0.5-0.53125-0.60937-0.47656-1.5352 0.13281-2.0703l7.5352-6.6406c0.60547-0.53516 1.5352-0.47656 2.0703 0.13281 0.53906 0.60937 0.48047 1.5352-0.13281 2.0703l-7.5352 6.6406c-0.27344 0.24609-0.62109 0.36719-0.96875 0.36719z"/>
  <path d="m58.52 47.555c-0.60156 0-1.1641-0.37109-1.3828-0.97266-0.26953-0.76562 0.12891-1.6055 0.89062-1.8789l8.7461-3.1367c0.76172-0.26562 1.6055 0.12109 1.8828 0.88672 0.26953 0.76562-0.125 1.6055-0.89062 1.8789l-8.7461 3.1367c-0.16406 0.058594-0.33203 0.085938-0.5 0.085938z"/>
  <path d="m69.23 61.031c-0.37109 0-0.74609-0.14062-1.0312-0.42578-0.57422-0.57031-0.57812-1.5-0.011719-2.0742l4.0859-4.125c0.56641-0.57422 1.4961-0.58203 2.0742-0.011719 0.57422 0.57031 0.57812 1.5 0.011719 2.0742l-4.082 4.125c-0.28906 0.29297-0.66797 0.4375-1.0469 0.4375z"/>
  <path d="m69.23 27.281c-0.80859 0-1.4688-0.65625-1.4688-1.4688v-7.1016c0-0.8125 0.66016-1.4688 1.4688-1.4688 0.8125 0 1.4688 0.65625 1.4688 1.4688v7.1016c0 0.80859-0.65234 1.4688-1.4688 1.4688z"/>
  <path d="m81.672 33.047c-0.48047 0-0.95703-0.24219-1.2383-0.67969-0.4375-0.6875-0.23047-1.5938 0.45312-2.0273l4.6055-2.9297c0.6875-0.43359 1.5938-0.23047 2.0312 0.44922 0.4375 0.6875 0.23047 1.5938-0.45313 2.0273l-4.6055 2.9297c-0.25 0.15625-0.52344 0.23047-0.79297 0.23047z"/>
  <path d="m88.227 43.141c-0.625 0-1.1992-0.40234-1.3984-1.0273-0.23828-0.77344 0.18359-1.5977 0.95703-1.8398l6.5-2.0469c0.76953-0.24609 1.5938 0.1875 1.8398 0.95703 0.24219 0.77344-0.18359 1.5977-0.95703 1.8398l-6.4961 2.0469c-0.14844 0.046876-0.29688 0.070313-0.44531 0.070313z"/>
  <path d="m91.48 62.762c-0.35156 0-0.70703-0.12891-0.98828-0.37891l-6.4805-5.8555c-0.60156-0.54688-0.64844-1.4727-0.10156-2.0742 0.53906-0.60156 1.4688-0.64844 2.0703-0.10547l6.4805 5.8555c0.60156 0.54688 0.65234 1.4727 0.10937 2.0703-0.29297 0.32422-0.6875 0.48828-1.0898 0.48828z"/>
 </g>
</svg>
