<svg width="512" height="512" fill="none" xmlns="http://www.w3.org/2000/svg"><g clip-path="url(#a)"><path fill-rule="evenodd" clip-rule="evenodd" d="M256 484.437c-3.042-.018-6.071-.253-9.073-.76a54.115 54.115 0 0 1-19.057-7.091c-3.518-2.139-6.752-4.685-9.715-7.539A19529.538 19529.538 0 0 1 42.97 293.862a57.829 57.829 0 0 1-3.66-4.155 54.052 54.052 0 0 1-6.422-10.256 54.416 54.416 0 0 1-5.305-22.783 54.43 54.43 0 0 1 5.022-23.484 53.88 53.88 0 0 1 6.281-10.318 58.122 58.122 0 0 1 4.084-4.694A19550.606 19550.606 0 0 1 218.155 42.987a57.748 57.748 0 0 1 4.693-4.083 53.908 53.908 0 0 1 10.319-6.282 54.384 54.384 0 0 1 46.266.283 53.896 53.896 0 0 1 10.257 6.422 58.707 58.707 0 0 1 4.155 3.66A19547.942 19547.942 0 0 1 469.03 218.172a58.44 58.44 0 0 1 3.66 4.155 54.07 54.07 0 0 1 6.422 10.257 54.41 54.41 0 0 1 5.305 22.783 54.434 54.434 0 0 1-5.022 23.483 53.883 53.883 0 0 1-6.282 10.319 57.992 57.992 0 0 1-4.083 4.693 19550.606 19550.606 0 0 1-175.185 175.185c-2.802 2.699-5.842 5.122-9.144 7.185a54.1 54.1 0 0 1-18.345 7.212c-2.775.537-5.581.84-8.405.958-.65.02-1.299.032-1.951.035zm0-21.333a34.397 34.397 0 0 0 5.522-.462 32.72 32.72 0 0 0 11.528-4.286c2.138-1.3 4.1-2.849 5.902-4.582 58.739-57.997 117.849-115.644 175.099-175.108 2.535-2.702 4.637-5.77 6.157-9.153a33.028 33.028 0 0 0 2.879-13.49 33.02 33.02 0 0 0-3.044-13.854c-1.505-3.242-3.546-6.185-5.99-8.788A6529.96 6529.96 0 0 0 278.646 57.974c-2.701-2.535-5.769-4.637-9.153-6.157a33.04 33.04 0 0 0-14.282-2.868 32.962 32.962 0 0 0-13.061 3.035c-3.242 1.505-6.185 3.546-8.789 5.99A6525.253 6525.253 0 0 0 57.954 233.38c-2.443 2.603-4.486 5.546-5.99 8.788a32.998 32.998 0 0 0-3.041 13.458 33.042 33.042 0 0 0 2.875 13.887c1.52 3.383 3.621 6.452 6.157 9.153A6525.818 6525.818 0 0 0 233.36 454.074c1.817 1.705 3.794 3.224 5.94 4.493a32.67 32.67 0 0 0 10.792 4.01c1.692.307 3.402.47 5.12.522.398.007.397.007.792.01l-.005-.005zm7.912-107.831c3.998 3.998 3.998 10.483 0 14.481-3.999 3.998-10.483 3.998-14.482 0-3.998-3.998-3.998-10.483 0-14.481 3.999-3.999 10.483-3.999 14.482 0zm26.455-26.456c3.998 3.999 3.998 10.484 0 14.482-3.999 3.998-10.483 3.998-14.482 0-3.998-3.998-3.998-10.483 0-14.482 3.999-3.998 10.483-3.998 14.482 0zm-53.244-.336c3.998 3.998 3.998 10.483 0 14.481-3.998 3.999-10.483 3.999-14.481 0-3.999-3.998-3.999-10.483 0-14.481 3.998-3.998 10.483-3.999 14.481 0zm79.701-26.119c3.999 3.999 3.999 10.484 0 14.482-3.998 3.998-10.483 3.998-14.481 0-3.998-3.998-3.998-10.483 0-14.482 3.998-3.998 10.483-3.998 14.481 0zm-53.248-.336c3.999 3.998 3.999 10.483 0 14.481-3.998 3.999-10.483 3.999-14.481 0-3.998-3.998-3.998-10.483 0-14.481 3.998-3.999 10.483-3.999 14.481 0zm-53.248-.335c3.999 3.998 3.999 10.483 0 14.481-3.998 3.999-10.483 3.999-14.481 0-3.998-3.998-3.998-10.483 0-14.481 3.998-3.999 10.483-3.999 14.481 0zm132.95-25.785c3.998 3.998 3.998 10.483 0 14.481-3.999 3.998-10.483 3.998-14.482 0-3.998-3.998-3.998-10.483 0-14.481 3.999-3.999 10.483-3.999 14.482 0zm-53.248-.335c3.998 3.998 3.998 10.483 0 14.481-3.999 3.998-10.484 3.998-14.482 0-3.998-3.998-3.998-10.483 0-14.481 3.999-3.999 10.483-3.999 14.482 0zm-53.248-.335c3.998 3.998 3.998 10.483 0 14.481-3.999 3.998-10.484 3.998-14.482 0-3.998-3.998-3.998-10.483 0-14.481 3.999-3.999 10.483-3.999 14.482 0zm-53.244-.337c3.998 3.998 3.998 10.483 0 14.481-3.998 3.999-10.483 3.999-14.482 0-3.998-3.998-3.998-10.483 0-14.481 3.999-3.998 10.484-3.998 14.482 0zm186.193-25.449c3.998 3.999 3.998 10.484 0 14.482-3.998 3.998-10.483 3.998-14.481 0-3.999-3.998-3.999-10.483 0-14.482 3.998-3.998 10.483-3.998 14.481 0zm-53.248-.335c3.998 3.999 3.998 10.484 0 14.482-3.998 3.998-10.483 3.998-14.481 0-3.999-3.998-3.999-10.483 0-14.482 3.998-3.998 10.483-3.998 14.481 0zm-53.248-.335c3.998 3.999 3.998 10.484 0 14.482-3.998 3.998-10.483 3.998-14.481 0-3.999-3.998-3.999-10.483 0-14.482 3.998-3.998 10.483-3.998 14.481 0zm-53.244-.336c3.999 3.998 3.999 10.483 0 14.481-3.998 3.999-10.483 3.999-14.481 0-3.998-3.998-3.999-10.483 0-14.481 3.998-3.999 10.483-3.999 14.481 0zm-53.248 14.146c-3.998 3.999-10.483 3.999-14.481 0-3.999-3.998-3.999-10.483 0-14.481 3.998-3.999 10.483-3.999 14.481 0 3.999 3.998 3.999 10.483 0 14.481zm186.193-39.93c3.999 3.999 3.999 10.483 0 14.482-3.998 3.998-10.483 3.998-14.481 0-3.998-3.999-3.998-10.483 0-14.482 3.998-3.998 10.483-3.998 14.481 0zm-53.243-.336c3.998 3.998 3.998 10.483 0 14.481-3.999 3.998-10.484 3.998-14.482 0-3.998-3.998-3.998-10.483 0-14.481 3.998-3.999 10.483-3.999 14.482 0zm-53.248-.335c3.998 3.998 3.998 10.483 0 14.481-3.999 3.998-10.484 3.998-14.482 0-3.998-3.998-3.998-10.483 0-14.481 3.998-3.999 10.483-3.999 14.482 0zm-53.248 14.146c-3.999 3.998-10.484 3.998-14.482 0-3.998-3.998-3.998-10.483 0-14.481 3.998-3.999 10.483-3.999 14.482 0 3.998 3.998 3.998 10.483 0 14.481zm132.949-40.267c3.998 3.999 3.998 10.484 0 14.482-3.998 3.998-10.483 3.998-14.482 0-3.998-3.998-3.998-10.483 0-14.482 3.999-3.998 10.484-3.998 14.482 0zm-53.248-.335c3.998 3.999 3.998 10.484 0 14.482-3.998 3.998-10.483 3.998-14.482 0-3.998-3.998-3.998-10.483 0-14.482 3.999-3.998 10.484-3.998 14.482 0zm-53.248 14.145c-3.998 3.999-10.483 3.999-14.482 0-3.998-3.998-3.998-10.483 0-14.481 3.999-3.999 10.484-3.999 14.482 0 3.998 3.998 3.998 10.483 0 14.481zm79.701-40.6c3.999 3.999 3.999 10.484 0 14.482-3.998 3.998-10.483 3.998-14.481 0-3.998-3.998-3.999-10.483 0-14.482 3.998-3.998 10.483-3.998 14.481 0zm-53.243 14.145c-3.999 3.999-10.484 3.999-14.482 0-3.998-3.998-3.998-10.483 0-14.481 3.998-3.999 10.483-3.999 14.482 0 3.998 3.998 3.998 10.483 0 14.481zm26.455-26.455c-3.999 3.999-10.484 3.999-14.482 0-3.998-3.998-3.998-10.483 0-14.481 3.998-3.999 10.483-3.999 14.482 0 3.998 3.998 3.998 10.483 0 14.481z" fill="#FE916A"/></g><defs><clipPath id="a"><path fill="#fff" d="M0 0h512v512H0z"/></clipPath></defs></svg>