<svg width="512" height="512" fill="none" xmlns="http://www.w3.org/2000/svg"><g clip-path="url(#a)"><g clip-path="url(#b)" fill="#FE916A"><path d="M3.555 218.667c3.555-81.78 113.779-113.78 181.333-120.888 88.888-10.666 202.667 7.112 273.78 60.446 35.555 24.888 56.887 56.888 53.333 92.446-7.112 103.112-170.667 128-252.446 124.446-64-3.555-131.554-17.779-184.887-49.779C28.447 296.893 0 257.783 3.555 218.671v-.004zm46.22 24.888c21.334 42.667 92.447 67.554 135.113 78.221 81.78 21.333 231.113 21.333 277.334-49.779-28.445-56.888-131.554-81.78-184.888-88.888-60.446-7.112-188.446 0-227.554 60.446h-.004zm0-7.112c28.446-64 167.113-71.112 227.555-64 53.333 3.555 167.113 32 188.446 92.446 14.222-35.555-21.333-67.554-49.779-81.779-81.779-49.779-220.446-60.446-309.334-21.333-28.445 10.666-71.112 35.555-56.887 74.666z"/><path d="M0 254.221C0 357.333 167.113 400 245.333 407.108c81.78 3.555 248.888-14.221 263.113-117.333 0 110.221-181.333 135.112-263.113 128C163.554 414.22-14.221 364.442 0 254.221z"/></g></g><defs><clipPath id="a"><path fill="#fff" d="M0 0h512v512H0z"/></clipPath><clipPath id="b"><path fill="#fff" d="M0 0h512v512H0z"/></clipPath></defs></svg>