<svg width="512" height="512" viewBox="0 0 512 512" fill="none" xmlns="http://www.w3.org/2000/svg">
<g clip-path="url(#clip0_1201_4719)">
<path fill-rule="evenodd" clip-rule="evenodd" d="M102.613 0.00175479C96.4812 0.00175479 90.3463 2.37028 85.6069 7.10992L6.43288 86.284C1.83417 90.8827 -0.675293 96.8765 -0.675293 103.29C-0.675293 109.702 1.83389 115.836 6.43288 120.297C11.0316 124.895 17.0254 127.405 23.4392 127.405C29.8508 127.405 35.9851 124.896 40.4456 120.297L119.62 41.1226C128.958 31.7845 128.958 16.4503 119.62 7.11222C115.019 2.37064 108.746 1.07502e-05 102.613 1.07502e-05V0.00175479ZM23.4392 111.373C21.3475 111.373 19.3964 110.536 17.7244 109.005C16.1907 107.471 15.3558 105.52 15.3558 103.29C15.3558 101.198 16.1929 99.1088 17.7244 97.5751L96.8984 18.4011C99.9657 15.3338 105.123 15.3338 108.19 18.4011C111.257 21.4684 111.257 26.6254 108.19 29.6926L29.0158 108.867C27.6206 110.539 25.5287 111.373 23.4392 111.373Z" fill="#FE916A"/>
<path fill-rule="evenodd" clip-rule="evenodd" d="M85.7485 55.6418C83.6567 55.6418 81.7057 56.479 80.0336 58.0104C76.9663 61.0777 76.9663 66.2347 80.0336 69.3019L149.727 138.995C152.794 142.062 157.951 142.062 161.018 138.995C164.085 135.928 164.085 130.771 161.018 127.703L91.3251 58.0104C89.7914 56.4767 87.8402 55.6418 85.7485 55.6418Z" fill="#FE916A"/>
<path fill-rule="evenodd" clip-rule="evenodd" d="M63.0263 78.3585C60.9346 78.3585 58.9835 79.1956 57.3115 80.7271C54.2442 83.7943 54.2442 88.9513 57.3115 92.0185L127.004 161.712C130.072 164.779 135.229 164.779 138.296 161.712C141.363 158.644 141.363 153.487 138.296 150.42L68.6029 80.7271C67.2099 79.1956 65.118 78.3585 63.0263 78.3585Z" fill="#FE916A"/>
<path fill-rule="evenodd" clip-rule="evenodd" d="M219.557 69.1575C212.308 69.1575 205.339 71.9458 200.182 77.2412L76.5463 200.877C71.3896 206.034 68.4626 212.865 68.4626 220.252C68.4626 227.639 71.2509 234.47 76.5463 239.626C81.7031 244.783 88.5345 247.71 95.921 247.71C103.17 247.71 110.139 244.922 115.296 239.626L238.931 115.99C244.088 110.834 247.015 104.002 247.015 96.6158C247.015 89.2293 244.227 82.3978 238.931 77.2412C233.775 72.0822 226.805 69.1558 219.557 69.1558V69.1575ZM95.921 231.546C92.8537 231.546 90.0678 230.43 87.8373 228.2C85.7455 226.108 84.4909 223.181 84.4909 220.116C84.4909 217.049 85.6071 214.263 87.8373 212.032L211.473 88.3964C213.565 86.3046 216.491 85.05 219.557 85.05C222.624 85.05 225.41 86.1662 227.64 88.3964C229.732 90.4882 230.987 93.4148 230.987 96.4801C230.987 99.5474 229.871 102.333 227.64 104.564L104.005 228.2C101.775 230.43 98.9885 231.546 95.921 231.546Z" fill="#FE916A"/>
<path fill-rule="evenodd" clip-rule="evenodd" d="M208.962 126.449C206.87 126.449 204.78 127.286 203.247 128.818L127.976 204.089C124.909 207.156 124.909 212.313 127.976 215.38L329.254 416.658C344.727 432.131 370.096 432.131 385.566 416.658L415.812 386.412C423.34 378.884 427.521 368.85 427.521 358.254C427.521 347.662 423.34 337.625 415.812 330.097L214.677 128.819C213.143 127.285 211.192 126.45 208.962 126.45L208.962 126.449ZM145.121 209.664L208.962 145.823L404.662 341.523C409.122 345.984 411.631 351.978 411.631 358.389C411.631 364.801 409.122 370.656 404.662 375.255L374.416 405.363C365.077 414.701 350.022 414.701 340.823 405.363L145.121 209.664Z" fill="#FE916A"/>
<path fill-rule="evenodd" clip-rule="evenodd" d="M409.405 373.721C407.314 373.721 405.363 374.558 403.69 376.09C400.623 379.157 400.623 384.314 403.69 387.381L433.381 417.072C434.774 418.326 435.473 420.139 435.473 422.09C435.473 424.041 434.776 425.713 433.381 427.108L426.412 434.078C425.019 435.332 423.344 436.169 421.393 436.169C419.581 436.169 417.77 435.473 416.375 434.078L386.825 404.387C383.758 401.32 378.601 401.32 375.534 404.387C372.466 407.454 372.466 412.611 375.534 415.678L405.224 445.369C409.546 449.691 415.4 452.059 421.532 452.059C427.664 452.059 433.52 449.691 437.839 445.369L444.808 438.4C449.13 434.078 451.499 428.224 451.499 422.092C451.499 415.96 449.13 410.104 444.808 405.785L415.118 376.094C413.448 374.558 411.359 373.721 409.405 373.721Z" fill="#FE916A"/>
<path fill-rule="evenodd" clip-rule="evenodd" d="M435.608 428.218C433.516 428.218 431.565 429.055 429.893 430.587C426.826 433.654 426.826 438.811 429.893 441.878L499.449 511.434C502.516 514.501 507.673 514.501 510.741 511.434C513.808 508.367 513.808 503.21 510.741 500.142L441.328 430.592C439.656 429.059 437.702 428.222 435.613 428.222L435.608 428.218Z" fill="#FE916A"/>
<path fill-rule="evenodd" clip-rule="evenodd" d="M198.652 200.743C196.56 200.743 194.609 201.58 192.937 203.111L160.041 236.007C156.974 239.075 156.974 244.232 160.041 247.299C163.108 250.366 168.265 250.366 171.332 247.299L204.228 214.403C207.296 211.335 207.296 206.178 204.228 203.111C202.833 201.578 200.741 200.743 198.652 200.743Z" fill="#FE916A"/>
<path fill-rule="evenodd" clip-rule="evenodd" d="M218.86 244.507C216.768 244.507 214.817 245.344 213.145 246.876L191.957 268.063C188.89 271.131 188.89 276.288 191.957 279.355C195.025 282.422 200.182 282.422 203.249 279.355L224.436 258.167C227.504 255.1 227.504 249.943 224.436 246.876C223.041 245.344 220.951 244.507 218.86 244.507Z" fill="#FE916A"/>
<path fill-rule="evenodd" clip-rule="evenodd" d="M262.63 264.721C260.538 264.721 258.587 265.558 256.915 267.089L224.019 299.986C220.952 303.053 220.952 308.21 224.019 311.277C227.087 314.344 232.244 314.344 235.311 311.277L268.207 278.381C271.274 275.314 271.274 270.157 268.207 267.089C266.673 265.558 264.722 264.721 262.63 264.721Z" fill="#FE916A"/>
<path fill-rule="evenodd" clip-rule="evenodd" d="M282.838 308.486C280.746 308.486 278.795 309.323 277.123 310.854L256.074 331.903C253.007 334.97 253.007 340.127 256.074 343.195C259.141 346.262 264.298 346.262 267.365 343.195L288.553 322.007C291.62 318.94 291.62 313.783 288.553 310.716C287.019 309.182 284.927 308.486 282.838 308.486Z" fill="#FE916A"/>
<path fill-rule="evenodd" clip-rule="evenodd" d="M326.608 328.699C324.516 328.699 322.565 329.536 320.893 331.068L287.997 363.964C284.93 367.031 284.93 372.188 287.997 375.255C291.065 378.322 296.222 378.322 299.289 375.255L332.185 342.359C335.252 339.292 335.252 334.135 332.185 331.068C330.649 329.534 328.559 328.699 326.608 328.699Z" fill="#FE916A"/>
<path fill-rule="evenodd" clip-rule="evenodd" d="M346.816 372.464C344.724 372.464 342.773 373.301 341.101 374.832L320.054 395.881C316.987 398.949 316.987 404.106 320.054 407.173C323.122 410.24 328.279 410.24 331.346 407.173L352.533 385.985C355.6 382.918 355.6 377.761 352.533 374.694C350.859 373.162 348.908 372.464 346.816 372.464Z" fill="#FE916A"/>
</g>
<defs>
<clipPath id="clip0_1201_4719">
<rect width="512" height="512" fill="white"/>
</clipPath>
</defs>
</svg>
