<?xml version="1.0" encoding="UTF-8"?>
<svg width="100pt" height="100pt" version="1.1" viewBox="0 0 100 100" xmlns="http://www.w3.org/2000/svg">
 <path d="m83.156 44.211c-5.2617-2.9492-12.738-5.2617-21.051-6.3164-2.8438-2.8438-6.4219-5.0508-11.895-5.0508h-0.10547c-3.7891 0-6.9492 1.1562-9.6836 3.5781-0.52734 0.42188-0.94922 0.84375-1.3672 1.2617-8.5273 1.0508-16.316 3.2617-21.789 6.2109-5.8945 3.2617-8.9492 7.1562-8.9492 11.262 0 4.9492 4.4219 9.5781 12.422 12.949 7.7891 3.3672 18.211 5.1562 29.262 5.1562s21.473-1.8945 29.262-5.1562c8-3.3672 12.422-8 12.422-12.949 0-4-2.9453-7.7891-8.5273-10.945zm-33.051-10.211c4.9492 0 8.3164 1.7891 10.844 4.3164l0.42188 0.42188c1.0508 1.0508 2 2.3164 3.1562 4l0.10547 0.21094c0.52734 0.73828 0.94922 1.4727 1.4727 2.2109 2.9492 4.6328 5.7891 9.0508 11.367 9.0508 0.31641 0 0.63281-0.31641 0.63281-0.63281s-0.31641-0.63281-0.63281-0.63281c-4.9492 0-7.4727-3.8945-10.422-8.5273-0.31641-0.42188-0.52734-0.84375-0.84375-1.2617 11.578 2.2109 18.949 6.6328 18.949 11.367 0 3.2617-3.6836 6.5273-10.105 8.9492-6.7383 2.5273-15.684 3.8945-25.156 3.8945-9.4727 0-18.422-1.3672-25.156-3.8945-6.4219-2.4219-10.105-5.6836-10.105-8.9492 0-4.9492 8.1055-9.4727 20.316-11.684-0.21094 0.31641-0.31641 0.52734-0.52734 0.84375-3.1562 4.7383-6 9.2617-12.105 9.2617-0.31641 0-0.63281 0.31641-0.63281 0.63281s0.31641 0.63281 0.63281 0.63281c6.6328 0 9.8945-4.9492 13.051-9.7891 0.42187-0.63281 0.84375-1.2617 1.2617-1.8945 0.10547-0.10547 0.21094-0.31641 0.31641-0.42188v-0.10547c0.10547-0.10547 0.21094-0.31641 0.31641-0.42188 2.9492-4 6.5273-7.4727 12.844-7.5781zm28.738 33.156c-7.6836 3.2617-17.895 5.0508-28.844 5.0508s-21.156-1.7891-28.844-5.0508c-7.5781-3.2617-11.684-7.4727-11.684-11.895 0-3.6836 2.8438-7.2617 8.3164-10.211 5.0508-2.8438 12.105-4.8438 20-5.8945-0.10547 0.10547-0.21094 0.21094-0.21094 0.31641 0 0.10547-0.10547 0.10547-0.10547 0.21094 0 0.10547-0.10547 0.10547-0.21094 0.21094s-0.21094 0.21094-0.21094 0.31641c0 0.10547-0.10547 0.10547-0.10547 0.21094-0.10547 0.10547-0.10547 0.21094-0.21094 0.21094l-0.10547 0.10547c-0.10547 0.21094-0.31641 0.42188-0.42188 0.52734v0.10547c-0.10547 0.10547-0.10547 0.21094-0.21094 0.21094l-0.10547 0.10547c-6.4219 1.0508-12 2.7383-15.895 4.9492-4.3164 2.3164-6.5273 5.1562-6.5273 8.1055 0 3.8945 3.8945 7.4727 10.949 10.105 6.8438 2.5273 15.895 4 25.578 4s18.738-1.3672 25.578-4c7.0508-2.6328 10.949-6.2109 10.949-10.105 0-5.5781-8-10.422-21.051-12.738-0.63281-0.94922-1.2617-1.7891-2-2.7383 15.895 2.3125 27.055 8.8398 27.055 15.996 0 4.4219-4.1055 8.6328-11.684 11.895z" fill="#fc9b75"/>
</svg>
