<svg width="24" height="24" viewBox="0 0 24 24" fill="none" xmlns="http://www.w3.org/2000/svg">
<path d="M22.8103 12.75L13.5 3.43969C13.3612 3.29979 13.196 3.18888 13.014 3.1134C12.832 3.03792 12.6368 2.99937 12.4397 3H3.75001C3.5511 3 3.36033 3.07902 3.21968 3.21967C3.07903 3.36032 3.00001 3.55109 3.00001 3.75V12.4397C2.99938 12.6367 3.03792 12.832 3.11341 13.014C3.18889 13.196 3.2998 13.3612 3.43969 13.5L12.75 22.8103C12.8893 22.9496 13.0547 23.0602 13.2367 23.1356C13.4187 23.211 13.6138 23.2498 13.8108 23.2498C14.0078 23.2498 14.2029 23.211 14.3849 23.1356C14.5669 23.0602 14.7323 22.9496 14.8716 22.8103L22.8103 14.8716C22.9496 14.7323 23.0602 14.5669 23.1356 14.3849C23.211 14.2029 23.2498 14.0078 23.2498 13.8108C23.2498 13.6138 23.211 13.4187 23.1356 13.2367C23.0602 13.0547 22.9496 12.8893 22.8103 12.75ZM13.8103 21.75L4.50001 12.4397V4.5H12.4397L21.75 13.8103L13.8103 21.75ZM9.00001 7.875C9.00001 8.0975 8.93403 8.31501 8.81041 8.50002C8.68679 8.68502 8.51109 8.82922 8.30553 8.91436C8.09996 8.99951 7.87376 9.02179 7.65553 8.97838C7.4373 8.93498 7.23685 8.82783 7.07951 8.6705C6.92218 8.51316 6.81503 8.31271 6.77162 8.09448C6.72822 7.87625 6.75049 7.65005 6.83564 7.44448C6.92079 7.23891 7.06499 7.06321 7.24999 6.9396C7.435 6.81598 7.6525 6.75 7.87501 6.75C8.17338 6.75 8.45952 6.86853 8.6705 7.0795C8.88148 7.29048 9.00001 7.57663 9.00001 7.875Z" fill="#FD9B75"/>
</svg>
