<svg width="24" height="24" viewBox="0 0 24 24" fill="none" xmlns="http://www.w3.org/2000/svg">
<path d="M12.75 7.5V11.5753L16.1363 13.6069C16.3068 13.7093 16.4297 13.8753 16.4779 14.0684C16.5261 14.2614 16.4956 14.4657 16.3931 14.6363C16.2907 14.8068 16.1247 14.9297 15.9316 14.9779C15.7386 15.0261 15.5343 14.9956 15.3638 14.8931L11.6138 12.6431C11.5028 12.5764 11.4109 12.4822 11.3472 12.3695C11.2835 12.2568 11.25 12.1295 11.25 12V7.5C11.25 7.30109 11.329 7.11032 11.4697 6.96967C11.6103 6.82902 11.8011 6.75 12 6.75C12.1989 6.75 12.3897 6.82902 12.5303 6.96967C12.671 7.11032 12.75 7.30109 12.75 7.5ZM21 5.25C20.8011 5.25 20.6103 5.32902 20.4697 5.46967C20.329 5.61032 20.25 5.80109 20.25 6V7.6875C19.6547 6.9975 19.0472 6.33281 18.3638 5.64094C17.113 4.39004 15.5213 3.53546 13.7877 3.18399C12.054 2.83252 10.2552 2.99974 8.616 3.66475C6.97682 4.32977 5.56996 5.46309 4.5712 6.9231C3.57245 8.38312 3.02609 10.1051 3.0004 11.8738C2.97471 13.6426 3.47083 15.3797 4.42676 16.8681C5.38269 18.3565 6.75604 19.5302 8.37522 20.2426C9.99439 20.9549 11.7876 21.1743 13.5307 20.8733C15.2739 20.5724 16.8897 19.7644 18.1763 18.5503C18.2479 18.4826 18.3055 18.4014 18.3458 18.3115C18.3861 18.2215 18.4083 18.1244 18.4111 18.0259C18.4138 17.9274 18.3972 17.8292 18.362 17.7371C18.3269 17.645 18.274 17.5607 18.2063 17.4891C18.1385 17.4174 18.0574 17.3598 17.9674 17.3195C17.8774 17.2792 17.7804 17.2571 17.6818 17.2543C17.5833 17.2515 17.4852 17.2681 17.3931 17.3033C17.301 17.3384 17.2167 17.3914 17.145 17.4591C16.0726 18.4698 14.7261 19.1421 13.2738 19.3922C11.8215 19.6422 10.3277 19.4589 8.97902 18.8651C7.6303 18.2712 6.4864 17.2932 5.69018 16.0532C4.89396 14.8132 4.48069 13.366 4.50199 11.8925C4.52329 10.419 4.97822 8.98442 5.80995 7.76792C6.64169 6.55141 7.81338 5.60688 9.1787 5.05229C10.544 4.4977 12.0425 4.35763 13.4869 4.64955C14.9314 4.94148 16.2578 5.65248 17.3006 6.69375C18.0638 7.46625 18.7322 8.21063 19.4063 9H17.25C17.0511 9 16.8603 9.07902 16.7197 9.21967C16.579 9.36032 16.5 9.55109 16.5 9.75C16.5 9.94891 16.579 10.1397 16.7197 10.2803C16.8603 10.421 17.0511 10.5 17.25 10.5H21C21.1989 10.5 21.3897 10.421 21.5303 10.2803C21.671 10.1397 21.75 9.94891 21.75 9.75V6C21.75 5.80109 21.671 5.61032 21.5303 5.46967C21.3897 5.32902 21.1989 5.25 21 5.25Z" fill="#FD9B75"/>
</svg>
