<svg width="24" height="24" viewBox="0 0 24 24" fill="none" xmlns="http://www.w3.org/2000/svg">
<path d="M22.5 11.8716C22.3288 9.90834 21.6107 8.03244 20.4272 6.45674C19.2437 4.88104 17.6421 3.66866 15.8044 2.95718C13.9666 2.2457 11.9662 2.06363 10.0302 2.43162C8.09422 2.79961 6.30014 3.70293 4.85159 5.03906C2.91777 6.81563 1.72302 9.25465 1.50472 11.8716C1.48692 12.0787 1.51236 12.2872 1.57943 12.484C1.64651 12.6807 1.75375 12.8614 1.89435 13.0145C2.03495 13.1677 2.20584 13.2899 2.39618 13.3734C2.58652 13.457 2.79215 13.5001 3.00003 13.5H11.25V18.75C11.25 19.5456 11.5661 20.3087 12.1287 20.8713C12.6913 21.4339 13.4544 21.75 14.25 21.75C15.0457 21.75 15.8087 21.4339 16.3713 20.8713C16.934 20.3087 17.25 19.5456 17.25 18.75C17.25 18.5511 17.171 18.3603 17.0304 18.2197C16.8897 18.079 16.6989 18 16.5 18C16.3011 18 16.1104 18.079 15.9697 18.2197C15.829 18.3603 15.75 18.5511 15.75 18.75C15.75 19.1478 15.592 19.5294 15.3107 19.8107C15.0294 20.092 14.6479 20.25 14.25 20.25C13.8522 20.25 13.4707 20.092 13.1894 19.8107C12.9081 19.5294 12.75 19.1478 12.75 18.75V13.5H21C21.2083 13.5008 21.4145 13.4581 21.6053 13.3749C21.7962 13.2916 21.9677 13.1695 22.1088 13.0163C22.2499 12.8631 22.3576 12.6822 22.4249 12.4851C22.4923 12.288 22.5179 12.0791 22.5 11.8716ZM3.00003 12C3.16625 10.068 3.95108 8.24107 5.238 6.79049C6.52493 5.33992 8.24532 4.34303 10.1438 3.94781C9.04503 5.4375 7.67347 8.07281 7.51597 12H3.00003ZM9.01409 12C9.1444 9.11531 10.0013 7.04906 10.7297 5.79C11.0889 5.16455 11.5148 4.57988 12 4.04625C12.4843 4.57996 12.9093 5.16463 13.2675 5.79C14.5125 7.94062 14.9063 10.245 14.9832 12H9.01409ZM16.4813 12C16.3238 8.07281 14.9522 5.4375 13.8563 3.94312C15.756 4.33746 17.4776 5.33471 18.7648 6.78644C20.052 8.23817 20.8359 10.0667 21 12H16.4813Z" fill="#FD9B75"/>
</svg>
